<svg width="128" height="154" viewBox="0 0 128 154" fill="none" xmlns="http://www.w3.org/2000/svg">
<path fill-rule="evenodd" clip-rule="evenodd" d="M29.9083 68.8837H22.35L15.0045 27.2217H23.1003L21.5535 17.752H5.61244C4.57168 17.752 3.86967 18.6051 4.05305 19.6466L13.4031 72.6716C13.9546 75.796 16.9614 78.352 20.0858 78.352H31.4551L29.9076 68.8844L29.9083 68.8837Z" fill="#AE35F0"/>
<path fill-rule="evenodd" clip-rule="evenodd" d="M122.613 17.7519H106.672L105.125 27.2217H113.223L105.876 68.8837H98.318L96.7712 78.3513H108.14C111.264 78.3513 114.271 75.7952 114.822 72.6702L124.172 19.6459C124.356 18.6037 123.653 17.7512 122.612 17.7512L122.613 17.7519Z" fill="#9111D8"/>
<path fill-rule="evenodd" clip-rule="evenodd" d="M93.3116 99.5154C93.0274 101.255 91.3526 102.679 89.5909 102.679H38.6348C36.8732 102.679 35.1983 101.255 34.9134 99.5154L19.9228 7.77576C19.6386 6.03579 20.8481 4.61218 22.6111 4.61218H105.615C107.376 4.61218 108.586 6.03579 108.302 7.77576L93.3109 99.5154H93.3116Z" fill="white"/>
<path fill-rule="evenodd" clip-rule="evenodd" d="M71.0111 138.39V109.049C68.9744 110.204 66.6213 110.864 64.1128 110.864C61.6044 110.864 59.2513 110.204 57.2145 109.049V138.39H71.0111V138.39Z" fill="#E81797"/>
<path fill-rule="evenodd" clip-rule="evenodd" d="M93.5467 145.302C93.5467 147.064 92.1049 148.507 90.3419 148.507L37.8845 148.508C36.1228 148.508 34.6796 147.065 34.6796 145.302V141.595C34.6796 139.833 36.1221 138.39 37.8845 138.39H90.3419C92.1056 138.39 93.5474 139.832 93.5474 141.595V145.302H93.5467Z" fill="#E81797"/>
<path fill-rule="evenodd" clip-rule="evenodd" d="M51.3613 102.679C53.5772 107.507 58.4514 110.863 64.1129 110.863C69.7745 110.863 74.6486 107.507 76.8646 102.679H51.3613V102.679Z" fill="#E81797"/>
<path fill-rule="evenodd" clip-rule="evenodd" d="M41.8837 99.5154L26.8938 7.77576C26.6096 6.03579 27.8191 4.61218 29.5814 4.61218H22.6111C20.8487 4.61218 19.6393 6.03579 19.9234 7.77576L34.9126 99.5154C35.1982 101.255 36.8724 102.679 38.6354 102.679H45.6044C43.8427 102.679 42.1679 101.255 41.8837 99.5154Z" fill="#E1EAF8"/>
<path fill-rule="evenodd" clip-rule="evenodd" d="M90.4684 53.5363C90.4684 68.0922 78.6694 79.8913 64.1134 79.8913C49.5575 79.8913 37.7584 68.0915 37.7584 53.5363C37.7584 38.981 49.5575 27.1805 64.1134 27.1805C78.6694 27.1805 90.4684 38.981 90.4684 53.5363V53.5363Z" fill="#FE7449"/>
<path fill-rule="evenodd" clip-rule="evenodd" d="M63.7971 38.3226C63.9714 38.051 64.2563 38.051 64.4291 38.3226L69.0688 45.5582C69.2438 45.8291 69.6406 46.1181 69.9528 46.1993L78.267 48.3774C78.5785 48.4593 78.6667 48.7302 78.463 48.9794L73.0156 55.6278C72.8105 55.8776 72.6593 56.3438 72.6782 56.6657L73.1773 65.2466C73.1955 65.5679 72.9652 65.7358 72.6656 65.6176L64.6594 62.4918C64.3591 62.3749 63.8678 62.3749 63.5675 62.4918L55.562 65.6176C55.261 65.7351 55.0308 65.5679 55.049 65.2466L55.5487 56.6657C55.5676 56.3438 55.4157 55.8776 55.2106 55.6278L49.7633 48.9794C49.5596 48.7302 49.6478 48.4593 49.9592 48.3774L58.2741 46.1993C58.5863 46.1181 58.9832 45.8291 59.1574 45.5582L63.7978 38.3226H63.7971Z" fill="white"/>
<path fill-rule="evenodd" clip-rule="evenodd" d="M125.584 16.838C124.86 15.975 123.777 15.4802 122.613 15.4802H109.346L110.545 8.14305C110.788 6.65365 110.392 5.17055 109.458 4.07029C108.523 2.97144 107.123 2.34082 105.615 2.34082H48.6638C47.4075 2.34082 46.3905 3.35779 46.3905 4.61272C46.3905 5.86765 47.4082 6.88462 48.6638 6.88462H105.615C105.716 6.88462 105.899 6.90142 105.995 7.0134C106.09 7.12609 106.077 7.30946 106.06 7.41025L91.0705 99.1499C90.9648 99.7966 90.2446 100.407 89.5902 100.407L38.6349 100.408C37.9804 100.408 37.2609 99.7959 37.1546 99.1499L22.1646 7.40885C22.1492 7.30876 22.1352 7.12609 22.2304 7.0141C22.3242 6.90142 22.509 6.88462 22.6112 6.88462H38.0602C39.3152 6.88462 40.3321 5.86765 40.3321 4.61272C40.3321 3.35779 39.3152 2.34082 38.0602 2.34082H22.6112C21.1022 2.34082 19.7017 2.97144 18.7673 4.07029C17.8329 5.16985 17.4368 6.65295 17.6803 8.14305L18.8793 15.4802H5.61183C4.44789 15.4802 3.36513 15.975 2.64142 16.838C1.91142 17.708 1.61046 18.8754 1.81483 20.0408L11.1649 73.0658C11.9124 77.3044 15.8312 80.6241 20.0859 80.6241H29.5242L32.6703 99.8827C33.1343 102.724 35.7547 104.951 38.6335 104.951H49.9867C51.2164 107.085 52.9151 108.916 54.9413 110.3V136.117L37.8825 136.116C34.8638 136.116 32.4057 138.574 32.4057 141.593V145.3C32.4057 148.321 34.8631 150.777 37.8825 150.777H90.3398C93.3606 150.777 95.8166 148.321 95.8166 145.3V141.593C95.8166 138.574 93.3599 136.116 90.3398 136.116L73.2824 136.116V128.058C73.2824 126.803 72.2654 125.786 71.0098 125.786C69.7548 125.786 68.7379 126.803 68.7379 128.058V136.116H59.4851V112.462C60.9528 112.897 62.5045 113.134 64.1115 113.134C65.7185 113.134 67.2709 112.898 68.7379 112.462V119.878C68.7379 121.133 69.7548 122.15 71.0098 122.15C72.2647 122.15 73.2817 121.133 73.2817 119.878V110.299C75.3079 108.914 77.0073 107.083 78.237 104.95H89.5888C92.4689 104.95 95.088 102.724 95.5541 99.882L98.7002 80.6241H108.138C112.392 80.6241 116.311 77.3037 117.059 73.0651L120.218 55.1432C120.437 53.9065 119.611 52.7286 118.375 52.5102C117.14 52.2925 115.961 53.1184 115.744 54.3537L112.583 72.2756C112.226 74.3018 110.148 76.0796 108.138 76.0796H99.4428L100.247 71.155H105.874C106.976 71.155 107.919 70.3634 108.111 69.2772L115.457 27.6152C115.574 26.9538 115.392 26.2742 114.96 25.7604C114.529 25.2467 113.891 24.9485 113.22 24.9485H107.798L108.602 20.024H121.797L117.187 46.1746C116.969 47.41 117.794 48.5879 119.03 48.8063C120.269 49.026 121.444 48.1981 121.661 46.9627L126.41 20.0387C126.615 18.8747 126.314 17.7066 125.583 16.8373L125.584 16.838ZM27.2341 66.6126H24.2553L17.7118 29.4937H21.1694L27.2341 66.6126ZM20.0859 76.0803C18.0758 76.0803 15.9985 74.3032 15.6408 72.2763L6.42652 20.0254H19.6226L20.4268 24.9499H15.0046C14.3327 24.9499 13.6958 25.2467 13.2639 25.7618C12.8328 26.2756 12.6501 26.9559 12.767 27.6166L20.1125 69.2786C20.3036 70.3648 21.2471 71.1564 22.3501 71.1564H27.9774L28.7816 76.081H20.0866L20.0859 76.0803ZM90.3412 140.662C90.848 140.662 91.2749 141.089 91.2749 141.595V145.303C91.2749 145.808 90.848 146.235 90.3412 146.235H37.8839C37.3785 146.235 36.9509 145.807 36.9509 145.303V141.595C36.9509 141.089 37.3792 140.662 37.8839 140.662H90.3412ZM64.1129 108.591C60.7764 108.591 57.7626 107.191 55.6216 104.951H72.6042C70.4631 107.191 67.4493 108.591 64.1129 108.591ZM110.513 29.4937L103.968 66.6126H100.992L107.056 29.4937H110.514H110.513Z" fill="#434C54"/>
</svg>
