<svg width="165" height="166" viewBox="0 0 165 166" fill="none" xmlns="http://www.w3.org/2000/svg">
<path fill-rule="evenodd" clip-rule="evenodd" d="M76.0298 3.43225H52.8959C51.9728 3.43225 51.2168 4.1883 51.2168 5.11135V40.4818C51.2168 41.4048 51.6571 42.7742 52.1975 43.5242L68.8124 66.6187C69.3529 67.3686 70.5492 67.982 71.4723 67.982H76.0298V3.43225V3.43225Z" fill="#AE35F0"/>
<path fill-rule="evenodd" clip-rule="evenodd" d="M96.4521 67.982C97.3752 67.982 98.5715 67.3686 99.112 66.6187L115.727 43.5242C116.264 42.7742 116.708 41.4079 116.708 40.4818V5.11135C116.708 4.1883 115.952 3.43225 115.029 3.43225H90.6649V67.982H96.4521V67.982Z" fill="#9111D8"/>
<path fill-rule="evenodd" clip-rule="evenodd" d="M70.6434 66.3029C70.6434 67.2259 71.3994 67.982 72.3225 67.982H95.6052C96.5282 67.982 97.2843 67.229 97.2843 66.3029V5.11135C97.2843 4.1883 96.5282 3.43225 95.6052 3.43225H72.3225C71.3994 3.43225 70.6434 4.1883 70.6434 5.11135V66.3029V66.3029Z" fill="#E81797"/>
<path fill-rule="evenodd" clip-rule="evenodd" d="M83.9605 83.0088C86.0799 83.0088 88.1537 83.1758 90.182 83.4916C90.4614 82.7568 90.6223 81.9612 90.6223 81.1293C90.6223 77.4523 87.6406 74.4675 83.9605 74.4675C80.2835 74.4675 77.3018 77.4492 77.3018 81.1293C77.3018 81.9612 77.4627 82.7537 77.7421 83.4916C79.7704 83.1727 81.8442 83.0088 83.9605 83.0088Z" fill="#FE7449"/>
<path fill-rule="evenodd" clip-rule="evenodd" d="M115.948 99.0136C113.073 101.282 111.291 104.181 109.281 109.034C105.968 101.033 103.281 98.3456 95.2801 95.033C99.8255 93.1504 102.652 91.4683 104.857 88.9026C98.7779 85.1648 91.6213 83.009 83.9636 83.009C61.8954 83.009 44.0052 100.899 44.0052 122.967C44.0052 145.036 61.8954 162.926 83.9636 162.926C106.035 162.926 123.922 145.036 123.922 122.967C123.922 113.98 120.955 105.688 115.948 99.0136V99.0136Z" fill="#FE7449"/>
<path fill-rule="evenodd" clip-rule="evenodd" d="M109.281 109.036C105.968 101.035 103.281 98.3483 95.2803 95.0356C96.4797 94.5376 97.5576 94.0549 98.5383 93.566C94.1447 91.3768 89.1955 90.144 83.9639 90.144C65.8642 90.144 51.1409 104.87 51.1409 122.967C51.1409 141.067 65.8642 155.79 83.9639 155.79C102.064 155.79 116.787 141.064 116.787 122.967C116.787 116.241 114.752 109.987 111.27 104.773C110.599 106.009 109.952 107.409 109.281 109.033V109.036Z" fill="white"/>
<path fill-rule="evenodd" clip-rule="evenodd" d="M83.4143 104.451C83.7179 103.987 84.2098 103.987 84.5134 104.451L90.7561 114.068C91.0598 114.532 91.743 115.03 92.2774 115.173L103.351 118.139C103.888 118.282 104.037 118.753 103.691 119.181L96.4766 128.089C96.1274 128.521 95.8663 129.325 95.8967 129.878L96.4979 141.325C96.5282 141.877 96.1275 142.169 95.6113 141.972L84.9112 137.863C84.395 137.663 83.5479 137.663 83.0286 137.863L72.3285 141.972C71.8124 142.169 71.4116 141.881 71.4419 141.325L72.0431 129.878C72.0735 129.325 71.8124 128.521 71.4632 128.089L64.2488 119.181C63.8996 118.75 64.0515 118.282 64.5889 118.139L75.6625 115.173C76.1969 115.03 76.8831 114.532 77.1837 114.068L83.4264 104.451H83.4143Z" fill="#FE7449"/>
<path fill-rule="evenodd" clip-rule="evenodd" d="M49.5134 84.2541C44.6795 86.258 43.055 87.8795 41.0511 92.7164C39.0471 87.8825 37.4256 86.258 32.5887 84.2541C37.4226 82.2501 39.0471 80.6287 41.0511 75.7917C43.052 80.6287 44.6765 82.2501 49.5134 84.2541Z" fill="white"/>
<path fill-rule="evenodd" clip-rule="evenodd" d="M131.006 70.6906C126.169 72.6946 124.548 74.316 122.544 79.1529C120.543 74.316 118.918 72.6946 114.081 70.6906C118.918 68.6896 120.54 67.0652 122.544 62.2283C124.548 67.0652 126.169 68.6896 131.006 70.6906Z" fill="white"/>
<path fill-rule="evenodd" clip-rule="evenodd" d="M109.281 81.0326C105.968 89.0334 103.281 91.7205 95.2802 95.0362C103.281 98.3489 105.968 101.036 109.281 109.037C112.593 101.036 115.281 98.3489 123.284 95.0362C115.284 91.7205 112.597 89.0334 109.281 81.0326Z" fill="#FE7449"/>
<path fill-rule="evenodd" clip-rule="evenodd" d="M41.0511 75.7917C39.0471 80.6287 37.4257 82.2501 32.5888 84.2541C37.4227 86.258 39.0471 87.8795 41.0511 92.7164C43.0521 87.8825 44.6765 86.258 49.5134 84.2541C44.6765 82.2501 43.0521 80.6287 41.0511 75.7917Z" fill="#FE7449"/>
<path fill-rule="evenodd" clip-rule="evenodd" d="M122.544 62.2283C120.543 67.0652 118.918 68.6896 114.081 70.6906C118.918 72.6946 120.54 74.316 122.544 79.1529C124.548 74.319 126.169 72.6946 131.006 70.6906C126.169 68.6896 124.548 67.0652 122.544 62.2283Z" fill="#FE7449"/>
<path fill-rule="evenodd" clip-rule="evenodd" d="M119.455 99.6693C120.776 98.8829 122.34 98.1481 124.247 97.3586C125.188 96.9669 125.801 96.0499 125.801 95.0328C125.801 94.0156 125.188 93.0956 124.247 92.7069C116.896 89.6615 114.652 87.4176 111.607 80.0666C111.218 79.1253 110.298 78.512 109.281 78.512C108.26 78.512 107.343 79.1253 106.955 80.0666C106.007 82.353 105.139 84.1444 104.171 85.6201C100.745 83.7588 97.0381 82.353 93.1303 81.4906C93.1364 81.3722 93.1455 81.2538 93.1455 81.1324C93.1455 80.4006 93.0575 79.6901 92.8935 79.0069C94.6424 76.9574 95.7082 74.3006 95.7082 71.4009V70.5021H96.4582C98.1798 70.5021 100.156 69.488 101.161 68.0912L109.056 57.1179C109.87 55.9883 109.612 54.4155 108.482 53.6018C107.353 52.7911 105.78 53.0461 104.966 54.1757L99.8042 61.3505V5.94932H114.193V40.4817C114.193 40.8795 113.917 41.7297 113.686 42.0545L110.28 46.7882C109.466 47.9177 109.724 49.4906 110.853 50.3043C111.983 51.118 113.556 50.86 114.37 49.7304L117.776 44.9968C118.617 43.8247 119.231 41.927 119.231 40.4848V5.11432C119.231 2.80063 117.348 0.918091 115.035 0.918091H52.9017C50.5881 0.918091 48.7055 2.80063 48.7055 5.11432V40.4848C48.7055 41.927 49.3158 43.8278 50.1599 44.9968L66.7748 68.0912C67.7799 69.488 69.7565 70.5021 71.4781 70.5021H72.2281V71.4009C72.2281 74.3006 73.2908 76.9574 75.0428 79.0069C74.8788 79.6901 74.7908 80.4006 74.7908 81.1354C74.7908 81.2568 74.7999 81.3722 74.8029 81.4937C55.7711 85.696 41.4911 102.697 41.4911 122.973C41.4911 146.396 60.5473 165.452 83.9666 165.452C107.389 165.452 126.445 146.396 126.445 122.973C126.445 114.377 123.87 106.37 119.462 99.6753L119.455 99.6693ZM109.281 86.8953C111.361 90.5967 113.714 92.9529 117.418 95.0297C113.717 97.1096 111.361 99.4658 109.281 103.167C107.201 99.4658 104.845 97.1096 101.146 95.0297C104.848 92.9498 107.201 90.5967 109.281 86.8953ZM73.1633 65.4618V27.4376C73.1633 26.0469 72.0368 24.9204 70.6462 24.9204C69.2555 24.9204 68.126 26.0469 68.126 27.4376V61.3475L54.2438 42.0515C54.0131 41.7297 53.7367 40.8764 53.7367 40.4817V5.94932H68.126V18.037C68.126 19.4277 69.2555 20.5542 70.6462 20.5542C72.0368 20.5542 73.1633 19.4277 73.1633 18.037V5.94932H94.7669V65.4618H73.1633V65.4618ZM83.9636 71.9504C81.6438 71.9504 79.5214 72.8188 77.9061 74.2429C77.4931 73.3806 77.2624 72.415 77.2624 71.3948V70.4991H90.6679V71.3948C90.6679 72.415 90.4371 73.3806 90.0241 74.2459C88.4058 72.8188 86.2864 71.9535 83.9636 71.9535V71.9504ZM88.0839 80.6921C86.7267 80.5615 85.3573 80.4886 83.9666 80.4886C82.579 80.4886 81.2036 80.5585 79.8493 80.689C80.071 78.6122 81.8321 76.9877 83.9666 76.9877C86.1042 76.9877 87.8653 78.6122 88.0839 80.6921ZM85.2024 160.387C63.5988 161.085 45.8696 143.374 46.5436 121.774C47.1539 102.22 62.9551 86.3033 82.5062 85.5533C89.01 85.3043 95.1647 86.7283 100.582 89.4246C99.95 89.8892 99.2577 90.3264 98.4865 90.7515C96.5068 91.7414 94.1718 92.3152 92.9755 94.0338C92.8419 94.3435 92.766 94.6805 92.766 95.0297C92.766 96.0499 93.3793 96.9669 94.3206 97.3556C101.672 100.398 103.915 102.645 106.961 109.996C107.35 110.937 108.27 111.551 109.287 111.551C109.593 111.551 109.94 111.408 110.264 111.217C110.975 110.801 111.528 110.166 111.892 109.428L114.087 104.995C114.181 104.807 114.288 104.625 114.406 104.448C114.685 104.045 115.22 103.289 115.554 102.891C119.459 109.015 121.639 116.339 121.39 124.179C120.764 143.812 104.838 159.749 85.2055 160.387H85.2024Z" fill="#434C54"/>
<path fill-rule="evenodd" clip-rule="evenodd" d="M43.3768 93.6819C45.1257 89.4613 46.2553 88.3318 50.4758 86.5829C51.4171 86.1942 52.0304 85.2742 52.0304 84.257C52.0304 83.2398 51.4171 82.3198 50.4758 81.9312C46.2522 80.1822 45.1257 79.0527 43.3768 74.8322C42.9882 73.8909 42.0681 73.2776 41.051 73.2776C40.0308 73.2776 39.1138 73.8909 38.7251 74.8322C36.9762 79.0558 35.8497 80.1822 31.6261 81.9312C30.6849 82.3198 30.0715 83.2398 30.0715 84.257C30.0715 85.2742 30.6849 86.1942 31.6261 86.5829C35.8497 88.3318 36.9762 89.4613 38.7251 93.6819C39.1168 94.6231 40.0338 95.2365 41.051 95.2365C42.0681 95.2365 42.9882 94.6231 43.3768 93.6819ZM41.051 87.3025C40.1947 86.0849 39.2231 85.1133 38.0055 84.257C39.2231 83.4008 40.1947 82.4291 41.051 81.2116C41.9072 82.4291 42.8789 83.4008 44.0964 84.257C42.8789 85.1133 41.9072 86.0849 41.051 87.3025Z" fill="#434C54"/>
<path fill-rule="evenodd" clip-rule="evenodd" d="M131.968 68.3642C127.745 66.6152 126.618 65.4857 124.869 61.2652C124.481 60.3239 123.561 59.7106 122.544 59.7106C121.526 59.7106 120.606 60.3239 120.218 61.2652C118.469 65.4887 117.339 66.6152 113.119 68.3642C112.177 68.7528 111.564 69.6728 111.564 70.69C111.564 71.7102 112.177 72.6272 113.119 73.0159C117.342 74.7648 118.469 75.8913 120.218 80.1148C120.606 81.0561 121.523 81.6694 122.544 81.6694C123.564 81.6694 124.481 81.0561 124.869 80.1148C126.618 75.8943 127.748 74.7648 131.968 73.0159C132.91 72.6242 133.523 71.7072 133.523 70.69C133.523 69.6728 132.91 68.7528 131.968 68.3642ZM122.544 73.7355C121.687 72.5179 120.716 71.5463 119.498 70.69C120.716 69.8338 121.687 68.8621 122.544 67.6446C123.4 68.8621 124.371 69.8338 125.592 70.69C124.375 71.5463 123.403 72.5179 122.544 73.7355Z" fill="#434C54"/>
</svg>
