<svg width="144" height="142" viewBox="0 0 144 142" fill="none" xmlns="http://www.w3.org/2000/svg">
<path fill-rule="evenodd" clip-rule="evenodd" d="M98.9166 20.4476C120.493 42.0309 120.493 77.0207 98.9166 98.6017C77.3424 120.185 42.3607 120.185 20.7854 98.6017C-0.78988 77.0195 -0.78988 42.0298 20.7854 20.4476C42.3618 -1.13456 77.3424 -1.13456 98.9166 20.4476V20.4476Z" fill="#9111D8"/>
<path fill-rule="evenodd" clip-rule="evenodd" d="M137.216 128.502L113.243 104.522L104.835 112.931L128.809 136.912C129.912 138.014 131.715 138.014 132.817 136.912L137.216 132.512C138.318 131.41 138.318 129.606 137.216 128.502Z" fill="#E81797"/>
<path fill-rule="evenodd" clip-rule="evenodd" d="M95.5461 24.6752C115.012 44.146 115.012 75.7136 95.5461 95.1833C76.0821 114.654 44.5237 114.654 25.0586 95.1833C5.59458 75.7125 5.59458 44.146 25.0586 24.6752C44.5248 5.20431 76.0821 5.20431 95.5461 24.6752V24.6752Z" fill="#AE35F0"/>
<path fill-rule="evenodd" clip-rule="evenodd" d="M92.0002 91.6831C74.2737 109.414 45.4298 109.414 27.7033 91.6831C9.97675 73.9509 9.97675 45.099 27.7033 27.3667C45.431 9.63444 74.2749 9.63444 92.0002 27.3667C109.726 45.0978 109.726 73.9497 92.0002 91.6831Z" fill="white"/>
<path fill-rule="evenodd" clip-rule="evenodd" d="M86.4127 86.0937C71.7677 100.743 47.9366 100.743 33.2916 86.0937C18.6466 71.443 18.6466 47.6061 33.2916 32.9566C47.9366 18.307 71.7666 18.307 86.4127 32.9566C101.059 47.6061 101.059 71.443 86.4127 86.0937Z" fill="#F2E3FF"/>
<path fill-rule="evenodd" clip-rule="evenodd" d="M42.0867 86.0936C27.4406 71.4428 27.4406 47.606 42.0867 32.9564C48.2911 26.7498 56.1446 23.1728 64.2492 22.2255C53.2225 20.9365 41.7312 24.5123 33.2906 32.9564C18.6456 47.606 18.6456 71.4428 33.2906 86.0936C41.7312 94.5365 53.2236 98.1135 64.2492 96.8244C56.1446 95.876 48.2911 92.3013 42.0867 86.0936V86.0936Z" fill="#DFCCF0"/>
<path fill-rule="evenodd" clip-rule="evenodd" d="M85.5159 75.2745C85.5159 70.8913 81.963 67.3373 77.581 67.3373C73.1978 67.3373 69.645 70.8913 69.645 75.2745C69.645 79.6577 73.1978 83.2105 77.581 83.2105C81.963 83.2105 85.5159 79.6577 85.5159 75.2745V75.2745Z" fill="white"/>
<path fill-rule="evenodd" clip-rule="evenodd" d="M109.184 108.581L104.835 112.931L128.809 136.913C129.912 138.015 131.715 138.015 132.817 136.913L135.166 134.563L109.184 108.581V108.581Z" fill="#FE7449"/>
<path fill-rule="evenodd" clip-rule="evenodd" d="M138.707 127.012L133.768 122.072C132.945 121.248 131.61 121.248 130.787 122.07C129.965 122.894 129.964 124.229 130.787 125.052L135.725 129.993C136.004 130.27 136.004 130.743 135.725 131.02L131.327 135.42C131.145 135.602 130.927 135.629 130.813 135.629C130.7 135.629 130.481 135.601 130.3 135.42L107.975 113.087C107.792 112.905 107.766 112.687 107.766 112.574C107.766 112.459 107.793 112.24 107.975 112.057L112.374 107.658C112.555 107.476 112.773 107.45 112.886 107.45C113 107.45 113.219 107.477 113.4 107.659L125.117 119.379C125.941 120.202 127.275 120.202 128.098 119.38C128.921 118.557 128.921 117.223 128.099 116.399L116.382 104.678C115.449 103.746 114.208 103.234 112.887 103.234C111.565 103.234 110.324 103.746 109.393 104.678L108.684 105.386L101.867 98.5685C104.412 95.831 106.69 92.8584 108.643 89.7047C109.255 88.7149 108.95 87.4156 107.961 86.8032C106.971 86.1908 105.673 86.4958 105.06 87.4844C102.91 90.957 100.342 94.1945 97.4281 97.1097C87.391 107.149 74.0477 112.678 59.8534 112.678C45.6591 112.678 32.3146 107.149 22.2775 97.1097C1.55777 76.3842 1.55777 42.6606 22.2775 21.9351C32.3157 11.8958 45.6591 6.36577 59.8534 6.36577C74.0477 6.36577 87.3922 11.8958 97.4292 21.934C105.151 29.6579 110.244 39.4025 112.159 50.1138C114.032 60.5867 112.769 71.2453 108.504 80.9429C108.035 82.0083 108.52 83.2526 109.586 83.7205C110.65 84.1884 111.895 83.7044 112.363 82.639C116.964 72.1742 118.329 60.6692 116.309 49.3718C114.242 37.8084 108.744 27.2908 100.41 18.9545C89.5769 8.11812 75.1739 2.15002 59.8534 2.15002C44.534 2.15002 30.131 8.11812 19.2981 18.9545C-3.06509 41.3223 -3.06509 77.7192 19.2981 100.089C30.131 110.924 44.534 116.894 59.8534 116.894C74.4697 116.894 88.2477 111.458 98.8891 101.55L105.705 108.368L104.995 109.077C104.065 110.008 103.552 111.25 103.552 112.572C103.552 113.895 104.065 115.136 104.995 116.067L127.32 138.399C128.251 139.33 129.492 139.843 130.815 139.843C132.137 139.843 133.378 139.33 134.308 138.399L138.707 133.999C140.633 132.072 140.633 128.937 138.707 127.01V127.012Z" fill="#434C54"/>
</svg>
