<?xml version="1.0" encoding="UTF-8"?>
<!DOCTYPE svg PUBLIC "-//W3C//DTD SVG 1.1//EN" "http://www.w3.org/Graphics/SVG/1.1/DTD/svg11.dtd">
<!-- Creator: CorelDRAW 2019 (64-Bit) -->
<svg xmlns="http://www.w3.org/2000/svg" xml:space="preserve" width="25.3998mm" height="25.3998mm" version="1.1" style="shape-rendering:geometricPrecision; text-rendering:geometricPrecision; image-rendering:optimizeQuality; fill-rule:evenodd; clip-rule:evenodd"
viewBox="0 0 2364.68 2364.68"
 xmlns:xlink="http://www.w3.org/1999/xlink">
 <defs>
  <style type="text/css">
   <![CDATA[
    .fil1 {fill:#9111D8}
    .fil2 {fill:#AE35F0}
    .fil0 {fill:#E81797}
    .fil3 {fill:#FE7449}
    .fil4 {fill:#FEFEFE}
   ]]>
  </style>
 </defs>
 <g id="Слой_x0020_1">
  <metadata id="CorelCorpID_0Corel-Layer"/>
  <path class="fil0" d="M499.35 0.34l1365.29 -0.34c274.57,0 499.52,224.44 499.69,499.35l0.34 1365.29c0,274.57 -224.44,499.52 -499.35,499.69l-1365.29 0.34c-274.57,0 -499.52,-224.44 -499.69,-499.35l-0.34 -1365.29c0,-274.57 224.44,-499.52 499.35,-499.69z"/>
  <path class="fil1" d="M2364.46 1025.64l-1709.22 -1025.33 1209.4 -0.31c274.57,0 499.52,224.44 499.69,499.35l0.13 526.28z"/>
  <path class="fil2" d="M655.24 0.31l1709.22 1025.33 0.21 839.01c0,10.95 -0.39,21.81 -1.1,32.59l-2363.12 -1417.58c10.78,-265.24 230.82,-479.15 498.89,-479.32l155.89 -0.04z"/>
  <path class="fil0" d="M0.46 479.66l2363.12 1417.58c-16.93,259.55 -234.31,466.93 -498.25,467.09l-176.89 0.05 -1688.22 -1012.73 -0.21 -851.62c0,-6.82 0.19,-13.61 0.46,-20.37z"/>
  <path class="fil3" d="M0.21 1351.65l1688.22 1012.73 -1188.41 0.3c-274.57,0 -499.52,-224.44 -499.69,-499.35l-0.13 -513.68z"/>
  <path class="fil4" d="M1624.13 587.45c58.68,0 106.4,47.55 106.4,106.4 0,58.68 -47.55,106.4 -106.4,106.4 -58.68,0 -106.4,-47.55 -106.4,-106.4 0,-58.68 47.55,-106.4 106.4,-106.4zm-803.34 -267.89l722.59 -0.17c137.88,0 263.27,56.28 354.11,147.12 90.84,90.84 147.29,216.23 147.29,354.11l0.17 722.59c0,137.88 -56.28,263.27 -147.12,354.11 -90.84,90.84 -216.23,147.29 -354.11,147.29l-722.59 0.17c-137.88,0 -263.27,-56.28 -354.29,-147.12 -90.84,-90.84 -147.29,-216.23 -147.29,-354.11l-0.17 -722.59c0,-137.88 56.28,-263.27 147.12,-354.29 90.84,-90.84 216.23,-147.29 354.11,-147.29l0.17 0.17 0.01 0.01zm722.59 133.94l-722.59 0.17c-100.93,0 -192.8,41.4 -259.51,108.11 -66.71,66.71 -107.95,158.58 -107.95,259.51l0.17 722.59c0,100.93 41.4,192.8 108.11,259.51 66.71,66.71 158.58,107.95 259.51,107.95l722.59 -0.17c100.93,0 192.8,-41.4 259.51,-108.11 66.71,-66.71 107.95,-158.58 107.95,-259.51l-0.17 -722.59c0,-100.93 -41.4,-192.8 -108.11,-259.51 -66.71,-66.71 -158.58,-107.95 -259.51,-107.95zm-361.12 287.05c121.8,0 232.31,49.44 312.37,129.33 79.89,79.89 129.5,190.23 129.5,312.2 0,121.8 -49.44,232.31 -129.33,312.37 -79.89,79.89 -190.23,129.5 -312.2,129.5 -121.8,0 -232.31,-49.44 -312.37,-129.33 -79.89,-79.89 -129.5,-190.23 -129.5,-312.2 0,-121.8 49.44,-232.31 129.33,-312.37 79.89,-79.89 190.23,-129.5 312.2,-129.5zm217.42 223.93c-55.77,-55.6 -132.58,-89.98 -217.43,-89.98 -85.02,0 -161.66,34.38 -217.43,90.16 -55.6,55.77 -90.16,132.58 -89.98,217.43 0,85.02 34.38,161.66 90.16,217.43 55.77,55.6 132.58,90.16 217.43,89.98 85.02,0 161.66,-34.38 217.43,-90.16 55.6,-55.77 90.16,-132.58 89.98,-217.43 0,-85.02 -34.38,-161.66 -90.16,-217.43z"/>
 </g>
</svg>
