<svg width="22" height="22" viewBox="0 0 22 22" fill="none" xmlns="http://www.w3.org/2000/svg">
<path fill-rule="evenodd" clip-rule="evenodd" d="M4.52608 0.0605527L16.7471 0.0569687C19.2057 0.0569687 21.2198 2.06753 21.2198 4.52608L21.2234 16.7472C21.2234 19.2057 19.2129 21.2199 16.7543 21.2199L4.53324 21.2234C2.07469 21.2234 0.060545 19.2129 0.060545 16.7543L0.0569611 4.53325C0.0569611 2.0747 2.06753 0.0605527 4.52608 0.0605527V0.0605527Z" fill="url(#paint0_linear)"/>
<path fill-rule="evenodd" clip-rule="evenodd" d="M14.5932 5.31454C15.1201 5.31454 15.5465 5.74102 15.5465 6.26785C15.5465 6.79468 15.1201 7.22117 14.5932 7.22117C14.0664 7.22117 13.6399 6.79468 13.6399 6.26785C13.6399 5.74102 14.0664 5.31454 14.5932 5.31454V5.31454ZM7.40393 2.91691H13.8729C15.1057 2.91691 16.2311 3.42224 17.041 4.2322C17.8546 5.04575 18.3599 6.1675 18.3599 7.40036V13.8693C18.3599 15.1021 17.8546 16.2275 17.0446 17.0374C16.2311 17.851 15.1093 18.3563 13.8764 18.3563H7.40752C6.17466 18.3563 5.04932 17.851 4.23577 17.041C3.42223 16.2275 2.9169 15.1057 2.9169 13.8729V7.40395C2.9169 6.17109 3.42223 5.04575 4.23219 4.2322C5.04573 3.41866 6.16749 2.91333 7.40035 2.91333L7.40393 2.91691ZM13.8729 4.11752H7.40393C6.50079 4.11752 5.6765 4.48666 5.08157 5.08517C4.48306 5.68368 4.11392 6.50439 4.11392 7.40753V13.8765C4.11392 14.7796 4.48306 15.6039 5.08157 16.1988C5.68008 16.7973 6.50079 17.1665 7.40393 17.1665H13.8729C14.776 17.1665 15.6003 16.7973 16.1952 16.1988C16.7937 15.6003 17.1629 14.7796 17.1629 13.8765V7.40753C17.1629 6.50439 16.7937 5.68009 16.1952 5.08517C15.5967 4.48666 14.776 4.11752 13.8729 4.11752V4.11752ZM10.6402 6.68717C11.7297 6.68717 12.7188 7.12799 13.4356 7.84477C14.1524 8.56154 14.5932 9.54711 14.5932 10.6402C14.5932 11.7297 14.1524 12.7189 13.4356 13.4356C12.7188 14.1524 11.7333 14.5932 10.6402 14.5932C9.55068 14.5932 8.56153 14.1524 7.84475 13.4356C7.12797 12.7189 6.68716 11.7333 6.68716 10.6402C6.68716 9.5507 7.12797 8.56154 7.84475 7.84477C8.56153 7.12799 9.5471 6.68717 10.6402 6.68717V6.68717ZM12.5862 8.69056C12.0881 8.1924 11.4 7.88419 10.6402 7.88419C9.8804 7.88419 9.1923 8.1924 8.69413 8.69056C8.19597 9.18873 7.88776 9.87683 7.88776 10.6366C7.88776 11.3964 8.19597 12.0845 8.69413 12.5827C9.1923 13.0808 9.8804 13.389 10.6402 13.389C11.4 13.389 12.0881 13.0808 12.5862 12.5827C13.0844 12.0845 13.3926 11.3964 13.3926 10.6366C13.3926 9.87683 13.0844 9.18873 12.5862 8.69056Z" fill="#FEFEFE"/>
<defs>
<linearGradient id="paint0_linear" x1="13.0737" y1="0.0569684" x2="6.33594" y2="21.1876" gradientUnits="userSpaceOnUse">
<stop stop-color="#465ED4"/>
<stop offset="0.211765" stop-color="#9E3393"/>
<stop offset="0.439216" stop-color="#D52B7B"/>
<stop offset="0.709804" stop-color="#F06442"/>
<stop offset="1" stop-color="#FED074"/>
</linearGradient>
</defs>
</svg>
