<?xml version="1.0" encoding="UTF-8"?>
<!DOCTYPE svg PUBLIC "-//W3C//DTD SVG 1.1//EN" "http://www.w3.org/Graphics/SVG/1.1/DTD/svg11.dtd">
<!-- Creator: CorelDRAW 2017 -->
<svg xmlns="http://www.w3.org/2000/svg" xml:space="preserve" width="1020.16mm" height="425.402mm" version="1.1" style="shape-rendering:geometricPrecision; text-rendering:geometricPrecision; image-rendering:optimizeQuality; fill-rule:evenodd; clip-rule:evenodd"
viewBox="0 0 41870.09 17459.64"
 xmlns:xlink="http://www.w3.org/1999/xlink">
 <defs>
  <style type="text/css">
   <![CDATA[
    .fil5 {fill:#FA107C}
    .fil0 {fill:black;fill-rule:nonzero}
    .fil1 {fill:url(#id0)}
    .fil8 {fill:url(#id1)}
    .fil7 {fill:url(#id2)}
    .fil4 {fill:url(#id3)}
    .fil6 {fill:url(#id4)}
    .fil3 {fill:url(#id5)}
    .fil2 {fill:url(#id6)}
   ]]>
  </style>
  <linearGradient id="id0" gradientUnits="userSpaceOnUse" x1="11122.63" y1="10488.09" x2="3579.39" y2="6246.55">
   <stop offset="0" style="stop-opacity:1; stop-color:#D509A6"/>
   <stop offset="1" style="stop-opacity:1; stop-color:#B903C5"/>
  </linearGradient>
  <linearGradient id="id1" gradientUnits="userSpaceOnUse" x1="41618.87" y1="12559.93" x2="41618.87" y2="11398.36">
   <stop offset="0" style="stop-opacity:1; stop-color:#771AED"/>
   <stop offset="1" style="stop-opacity:1; stop-color:#C201B0"/>
  </linearGradient>
  <linearGradient id="id2" gradientUnits="userSpaceOnUse" x1="36108.5" y1="10640.03" x2="36102.63" y2="9453.36">
   <stop offset="0" style="stop-opacity:1; stop-color:#FF5174"/>
   <stop offset="0.439216" style="stop-opacity:1; stop-color:#FE892F"/>
   <stop offset="1" style="stop-opacity:1; stop-color:#FDA60B"/>
  </linearGradient>
  <linearGradient id="id3" gradientUnits="userSpaceOnUse" xlink:href="#id1" x1="12057.83" y1="2614.97" x2="12057.84" y2="15360.42">
  </linearGradient>
  <linearGradient id="id4" gradientUnits="userSpaceOnUse" x1="10617.26" y1="5507.93" x2="12728.85" y2="4228.44">
   <stop offset="0" style="stop-opacity:1; stop-color:#CD08B0"/>
   <stop offset="1" style="stop-opacity:1; stop-color:#B903C5"/>
  </linearGradient>
  <linearGradient id="id5" gradientUnits="userSpaceOnUse" xlink:href="#id4" x1="7949.42" y1="3365.98" x2="10042.43" y2="2713.6">
  </linearGradient>
  <linearGradient id="id6" gradientUnits="userSpaceOnUse" xlink:href="#id2" x1="11290.65" y1="16980.03" x2="11445.94" y2="1916.68">
  </linearGradient>
 </defs>
 <g id="Слой_x0020_1">
  <metadata id="CorelCorpID_0Corel-Layer"/>
  <path class="fil0" d="M20724.68 3673.72l829.58 0 0 3312.07 -829.58 0 0 -352.41c-162.17,153.86 -325.39,264.05 -488.6,331.62 -163.21,67.57 -340.98,101.88 -531.22,101.88 -429.34,0 -799.43,-165.29 -1112.34,-496.92 -312.91,-330.58 -468.84,-742.25 -468.84,-1233.97 0,-510.43 151.78,-928.34 454.29,-1254.76 302.51,-325.38 669.48,-488.6 1101.94,-488.6 199.6,0 385.68,37.42 560.33,111.23 174.65,73.81 335.78,186.08 484.44,333.7l0 -363.85zm-874.28 679.88c-257.81,0 -471.97,90.44 -641.42,272.37 -170.49,180.88 -255.73,413.75 -255.73,697.55 0,285.88 86.28,520.82 259.89,705.87 173.61,184 386.72,276.53 640.37,276.53 260.93,0 478.21,-90.45 649.73,-272.37 172.57,-180.89 258.85,-418.95 258.85,-713.15 0,-287.96 -86.28,-520.82 -258.85,-699.63 -171.53,-177.76 -389.84,-267.17 -652.85,-267.17z"/>
  <path id="1" class="fil0" d="M23220.68 3673.72l0 363.85c149.7,-147.62 311.87,-259.89 486.52,-333.7 174.65,-73.81 361.77,-111.23 560.33,-111.23 431.42,0 798.39,163.21 1100.91,488.6 302.51,326.43 453.25,744.33 453.25,1254.76 0,491.71 -155.94,903.38 -468.85,1233.97 -311.87,331.63 -681.96,496.92 -1110.26,496.92 -190.24,0 -368.01,-34.31 -532.26,-101.88 -164.25,-67.57 -327.46,-178.81 -489.64,-333.7l0 1564.55 -829.58 0 0 -4522.12 829.58 0zm871.16 679.88c-260.93,0 -478.2,89.4 -649.73,267.17 -172.57,178.81 -258.85,411.67 -258.85,699.63 0,294.2 86.28,532.26 258.85,713.15 171.53,181.92 388.8,272.37 649.73,272.37 253.66,0 466.77,-92.52 640.37,-276.53 173.61,-185.05 259.89,-419.99 259.89,-705.87 0,-283.8 -85.25,-516.67 -255.73,-697.55 -169.45,-181.93 -384.64,-272.37 -644.53,-272.37z"/>
  <polygon id="2" class="fil0" points="26215.69,3673.72 29303.21,3673.72 29303.21,4465.87 28199.18,4465.87 28199.18,6985.78 27369.61,6985.78 27369.61,4465.87 26215.69,4465.87 "/>
  <path id="3" class="fil0" d="M18703.76 12656.95l0 573.84 -742.25 0 0 -1278.67 497.95 0 1148.72 -2607.24 536.42 0 1156 2607.24 509.39 0 0 1278.67 -792.15 0 0 -573.84 -2314.08 0zm1713.21 -704.83l-543.69 -1399.26 -569.69 1399.26 1113.38 0z"/>
  <polygon id="4" class="fil0" points="22774.71,12656.95 22332.89,12656.95 22332.89,9344.89 23143.76,9344.89 23143.76,11289.92 24840.34,9344.89 25239.53,9344.89 25239.53,12656.95 24428.67,12656.95 24428.67,10751.42 "/>
  <path id="5" class="fil0" d="M26905.96 9344.89l0 363.85c149.7,-147.62 311.87,-259.89 486.52,-333.7 174.65,-73.81 361.77,-111.23 560.33,-111.23 431.42,0 798.39,163.21 1100.91,488.6 302.51,326.43 453.25,744.33 453.25,1254.76 0,491.71 -155.94,903.38 -468.85,1233.97 -311.87,331.63 -681.96,496.92 -1110.26,496.92 -190.24,0 -368.01,-34.31 -532.26,-101.88 -164.25,-67.57 -327.46,-178.81 -489.64,-333.7l0 1564.55 -829.58 0 0 -4522.12 829.58 0zm871.16 679.88c-260.93,0 -478.2,89.4 -649.73,267.17 -172.57,178.81 -258.85,411.67 -258.85,699.63 0,294.2 86.28,532.26 258.85,713.15 171.53,181.92 388.8,272.37 649.73,272.37 253.66,0 466.77,-92.52 640.37,-276.53 173.61,-185.05 259.89,-419.99 259.89,-705.87 0,-283.8 -85.25,-516.67 -255.73,-697.55 -169.45,-181.93 -384.64,-272.37 -644.53,-272.37z"/>
  <path id="6" class="fil0" d="M33509.31 11234.82l-2666.5 0c38.47,235.98 141.38,424.14 307.71,564.49 166.33,139.3 379.44,208.95 637.25,208.95 309.79,0 574.88,-109.15 797.35,-327.46l696.51 329.54c-173.61,247.42 -382.56,430.38 -624.78,549.93 -243.26,118.51 -531.22,177.77 -864.92,177.77 -517.7,0 -939.77,-163.21 -1265.15,-490.68 -325.39,-326.43 -488.6,-736.02 -488.6,-1227.73 0,-504.19 163.21,-923.14 488.6,-1255.8 325.39,-333.7 732.9,-500.03 1224.61,-500.03 520.82,0 944.97,166.33 1271.39,497.95 326.43,332.66 489.64,770.32 489.64,1316.09l-3.12 156.98zm-826.46 -648.69c-55.1,-180.88 -163.21,-328.5 -324.34,-441.82 -162.17,-113.31 -349.29,-169.45 -563.45,-169.45 -231.82,0 -434.54,63.42 -610.23,191.28 -109.15,79.01 -211.03,219.35 -304.59,419.99l1802.61 0z"/>
  <polygon id="7" class="fil0" points="34187.1,9344.89 35016.68,9344.89 35016.68,10585.09 36169.56,9344.89 37183.14,9344.89 35699.68,10954.14 37201.85,12656.95 36096.79,12656.95 35106.08,11489.52 35016.68,11591.39 35016.68,12656.95 34187.1,12656.95 "/>
  <polygon id="8" class="fil0" points="37618.72,9344.89 40706.24,9344.89 40706.24,10137.04 39602.22,10137.04 39602.22,12656.95 38772.64,12656.95 38772.64,10137.04 37618.72,10137.04 "/>
  <g id="_2241216269456">
   <polygon class="fil1" points="-0,8149.75 1503.14,9089.02 4879.22,7293.92 10522.98,10820.54 10580.21,10811.84 12042.98,9989.31 12057.83,9969.61 12043.01,9944.54 6499.69,6474.95 6444.18,6461.82 6498.11,6457.99 7981.26,5664.87 8010.99,5628.73 8661.93,5282.62 8628.5,5232.69 7232.7,4363.48 7158.79,4343.36 7115.98,4350.42 28.94,8123.29 "/>
   <path class="fil2" d="M8081.09 3852.96l-5.97 -16.75 2.29 -641.51 3.68 -12.76 0 -1067.47 3976.73 -2114.46 2.32 11.03 1.21 4536.45 -3.53 6.94 -4.52 6.51 -1467.33 799.28 -63 10.31 0 -1077.42 -2.35 -2.7 -4.7 -1711.71 5.15 -20.83 -15.56 15.81 -2417.8 1279.34 -6.62 -0.04zm2441.89 3347.57l0 -768.76 910.7 -484.23 4.33 -5.73 611.46 -324.25 8.36 -1.9 2.17 5.11 14.2 2486.86 -16.37 51.97 -60.86 -7.63 -1451.17 -921.03 -22.82 -30.43zm0 3620.01l0 5679.88 64.21 -22.53 1427.89 -746.76 42.75 -46.81 20.85 -62.67 -2.93 -5608.77 -17.92 -43.27 -1534.85 850.92zm-10522.98 -2670.78l0 -1738.5 7158.79 -3806.4 6.69 27.47 0.91 1673.96 -7.6 37.07 -7158.79 3806.4z"/>
   <polygon class="fil3" points="10522.98,4293.08 9584.23,4792.22 8662.93,4216.53 8628.79,4211.22 8098.35,3880.84 8081.09,3852.96 10522.98,2554.59 "/>
   <path class="fil4" d="M12057.83 0l1534.98 959.16 0 4554.41 -23.84 -7.43 -1506.28 -942.92 -4.85 -8.8 -0 -4554.41zm-4899.04 2604.86l922.3 576.32 0 671.77 580.83 362.94 0 1066.72 -1503.14 -939.26 0 -1738.5zm850.35 3024.85l2513.84 1570.82 1534.85 959.08 0 -2543.94 5.2 1.19 607.48 374.03 4.92 10.7 917.38 573.24 -0 10068.65 -66.62 -20.72 -1448.81 -911.12 -19.54 -27.32 0 -5714.71 -5613.65 -3507.8 1564.96 -832.1z"/>
   <polygon class="fil5" points="10522.98,16500.41 12057.83,17459.64 13592.8,16643.48 12057.83,15684.32 "/>
   <polygon class="fil6" points="10522.98,5370.51 11433.38,5947.7 12057.83,5615.67 12675.22,6001.46 13592.81,5513.57 12057.83,4554.41 "/>
  </g>
  <polygon class="fil7" points="35011.92,9344.87 36181.91,9344.87 35011.92,10603.46 "/>
  <polygon class="fil8" points="40700.11,12656.95 41870.09,12656.95 40700.11,11398.36 "/>
 </g>
</svg>
