<svg width="26" height="17" viewBox="0 0 26 17" fill="none" xmlns="http://www.w3.org/2000/svg">
<path fill-rule="evenodd" clip-rule="evenodd" d="M24.0313 16.8432L14.7598 9.93028L13.6802 10.7883C13.0479 11.2946 12.1634 11.2681 11.5636 10.772L10.5958 9.99737L1.09863 16.8473H24.0333V16.8412L24.0313 16.8432ZM0.138947 15.4647L9.23151 8.9096L0.26094 1.7547C0.218242 1.72217 0.177578 1.68557 0.138947 1.64897V15.4647V15.4647ZM12.6371 9.46874L23.9683 0.433107H1.30805L12.6392 9.46874H12.6371ZM24.9361 1.81773L16.1282 8.84047L25.1415 15.5643V1.65507C25.0784 1.712 25.0093 1.77097 24.9422 1.82383L24.9361 1.81773V1.81773Z" fill="white"/>
</svg>
