<svg width="23" height="23" viewBox="0 0 23 23" fill="none" xmlns="http://www.w3.org/2000/svg">
<path fill-rule="evenodd" clip-rule="evenodd" d="M18.3684 14.143C19.6784 14.8465 20.9073 15.4282 22.1091 16.1475C22.3661 16.3008 22.5578 16.5015 22.684 16.7405C22.9095 17.1463 22.9433 17.6243 22.8329 18.1272C22.7382 18.5578 22.5375 19.0178 22.2737 19.4575C21.7325 20.3571 20.887 21.2184 20.1542 21.6288L20.1497 21.6333C19.4845 21.9963 18.7675 22.2218 18.0212 22.3278C15.1847 22.7246 11.8657 21.3582 8.88262 19.1824C5.9424 17.0359 3.29756 14.0934 1.76658 11.2817C1.04956 9.97167 0.57155 8.67969 0.404697 7.50045V7.49594C0.208532 6.02808 1.22769 3.79361 2.52418 2.3686C2.96837 1.87706 3.45314 1.47346 3.94468 1.20739C4.49935 0.912019 5.06304 0.797027 5.59968 0.934567C6.19719 1.08789 6.70902 1.53659 7.07204 2.37311L8.72704 6.08445L8.74057 6.11828C9.35161 7.75298 8.48804 8.59626 7.74622 9.3223C7.45535 9.60415 7.19605 9.85893 7.20507 10.0213V10.0258C7.20958 10.1656 7.43055 10.5466 7.72141 10.9863C8.27158 11.8138 9.04496 12.7473 9.29524 13.0246C9.76874 13.541 10.8059 14.4203 11.877 15.1486C12.6796 15.6988 13.4846 16.1565 14.0393 16.2918C14.2647 16.3436 14.6323 15.9152 14.8713 15.6311C14.9389 15.55 14.9998 15.4778 15.0629 15.4102C15.2456 15.214 15.4305 15.0088 15.5928 14.8262C16.6503 13.6402 16.9073 13.3493 18.3617 14.1385H18.3662L18.3684 14.143Z" fill="white"/>
</svg>
