<svg width="100" height="100" viewBox="0 0 100 100" fill="none" xmlns="http://www.w3.org/2000/svg">
	<g clip-path="url(#clip0)">
		<path d="M50.1516 84.0198C68.859 84.0198 84.0243 68.8544 84.0243 50.1471C84.0243 31.4397 68.859 16.2744 50.1516 16.2744C31.4443 16.2744 16.279 31.4397 16.279 50.1471C16.279 68.8544 31.4443 84.0198 50.1516 84.0198Z" fill="#FEFEFE"/>
		<path
			fill-rule="evenodd"
			clip-rule="evenodd"
			d="M64.8345 32.949C69.0095 31.6722 70.631 34.213 69.2521 38.0178C68.3201 40.6096 67.4135 43.1887 66.4815 45.8699L58.1953 69.4518C57.4164 71.6989 56.7398 75.6442 53.6244 75.4909C51.1475 75.3633 49.7941 71.8649 48.76 69.7455C47.5343 67.2558 46.449 65.1236 45.2361 62.5956C43.3465 58.6887 43.8189 59.0845 39.8098 57.1182C37.1414 55.8032 35.1113 54.8073 32.6982 53.6199C30.4639 52.5219 27.157 51.2451 27.0932 48.5128C27.0293 45.423 30.7958 44.823 33.2855 43.9675C42.657 40.7118 55.9099 35.6813 64.8345 32.949V32.949ZM0.0129196 50.4152C0.0384549 61.1401 4.03474 71.8011 8.9886 78.6829C10.4058 80.6363 13.5977 84.6582 15.5257 86.3179C19.9688 90.1483 23.3523 93.072 29.2892 95.715C38.7501 99.9283 49.6154 101.652 60.9148 99.1112C71.4098 96.7491 79.1854 91.7442 85.1096 85.9988C99.7541 71.8011 104.542 49.9683 96.2047 30.4593C82.5943 -1.40884 41.1504 -10.7037 15.1043 14.3976C7.18836 22.0199 -0.0381515 34.6088 0.000151583 50.4407L0.0129196 50.4152Z"
			fill="#2CA4E0"/>
	</g>
	<defs>
		<clipPath id="clip0">
			<rect width="100" height="100" fill="white"/>
		</clipPath>
	</defs>
</svg>
