<svg width="23" height="25" viewBox="0 0 23 25" fill="none" xmlns="http://www.w3.org/2000/svg">
<path fill-rule="evenodd" clip-rule="evenodd" d="M3.05141 16.7667C4.18453 18.8683 6.41031 19.2406 6.41031 19.2406L6.4211 19.2433V23.1445C6.4211 23.3253 6.41031 23.587 6.58028 23.6463C6.75025 23.7057 7.05241 23.3873 7.14684 23.2767L10.0417 19.8315C12.6452 20.0095 15.1434 19.7074 16.8728 19.2406C16.8728 19.2406 19.0986 18.871 20.2317 16.7667C21.3648 14.665 21.2623 12.0885 21.2839 10.5642C21.3055 9.03984 21.1193 5.59731 18.8315 4.03253C15.5131 1.76089 7.77545 1.76089 4.45702 4.03253C2.1692 5.59731 1.98304 9.03984 2.00462 10.5642C2.02621 12.0885 1.92099 14.665 3.05411 16.7667H3.05141ZM7.44361 12.3745C6.6774 11.2386 5.64141 9.57133 5.20165 8.09018C4.95883 7.26732 5.84105 6.50921 6.38603 6.03437C7.29522 5.23849 7.88337 5.8698 8.39597 6.58205C8.81684 7.1648 9.58035 8.00924 9.58305 8.62976C9.58845 9.72511 8.14506 9.44992 8.55784 10.7503C8.97062 12.0507 10.3223 13.6101 11.6901 14.1092C13.3898 14.7297 12.8097 13.7612 13.7055 13.3187C14.4177 12.968 15.4726 13.8017 15.9393 14.1659C16.4708 14.5813 17.4852 15.1533 16.9672 16.0463C16.6327 16.6264 15.8935 17.5005 15.2352 17.5787C14.1128 17.7109 11.5228 16.0976 10.7351 15.5796C9.29977 14.638 8.09111 13.343 7.43821 12.3772L7.44361 12.3745ZM14.5445 8.41932C14.2235 8.01734 13.7702 7.70168 13.2495 7.48855C12.9204 7.35365 12.7558 7.32667 12.3835 7.23224C12.1164 7.1675 11.6092 7.22145 11.5579 6.94627C11.4176 6.20704 12.8394 6.70345 13.1362 6.78709C13.6137 6.91929 14.2235 7.23225 14.5796 7.57488C15.4888 8.449 15.9393 9.30963 15.9393 10.78C15.9393 11.2791 15.424 11.2036 15.3485 10.9473C15.2891 10.7449 15.3242 10.2296 15.2514 9.93825C15.0679 9.226 14.9546 8.93193 14.5445 8.41932V8.41932ZM14.272 10.5696C13.7594 10.8124 13.7999 10.2296 13.7351 9.94364C13.6461 9.54705 13.5948 9.41485 13.3304 9.15316C12.8799 8.708 11.5121 8.87527 12.1596 8.19C12.2648 8.07939 13.066 8.28713 13.1902 8.33569C13.5382 8.47058 13.665 8.60548 13.8862 8.8375C14.0616 9.02096 14.728 10.3537 14.272 10.5696ZM16.8593 10.6316C16.8296 10.2701 16.6893 9.55514 16.5787 9.25568C15.9582 7.5533 14.9924 6.61442 13.2765 5.93455C13.0283 5.83473 12.2324 5.64048 11.9275 5.62969C11.7198 5.62159 11.3016 5.68634 11.1532 5.56764C10.9914 5.43814 10.932 5.16025 11.1613 5.03345C11.6308 4.77445 13.6245 5.37878 13.9483 5.53256C15.4186 6.24211 16.6111 7.40221 17.1318 8.97779C17.2559 9.3555 17.7766 11.4922 17.3584 11.727C16.7973 12.0426 16.8836 10.9769 16.8566 10.6316H16.8593Z" fill="#7B519C"/>
<path fill-rule="evenodd" clip-rule="evenodd" d="M5.75741 20.7865C5.75741 20.7865 2.93001 20.1471 1.60533 17.692C0.280659 15.2369 0.402065 12.2261 0.377784 10.4455C0.353503 8.66483 0.569335 4.64225 3.24296 2.81307C7.11986 0.158328 16.1605 0.158328 20.0374 2.81307C22.7084 4.64225 22.9269 8.66214 22.9026 10.4455C22.8783 12.2261 22.9997 15.2369 21.6751 17.692C20.3504 20.1471 17.8036 20.6948 17.8036 20.6948C15.7855 21.2398 12.7018 21.6957 9.65859 21.488L7.55692 23.908C7.4463 24.0348 6.96608 24.6338 6.36174 24.4125C5.75741 24.1913 5.61712 23.6166 5.6495 22.9664L5.75741 20.7892V20.7865ZM13.2792 5.93455C14.9951 6.61442 15.9609 7.5533 16.5814 9.25568C16.692 9.55514 16.835 10.2701 16.862 10.6316C16.889 10.9769 16.8027 12.0426 17.3638 11.727C17.782 11.4922 17.2613 9.3582 17.1372 8.97779C16.6165 7.40221 15.424 6.24211 13.9537 5.53256C13.6326 5.37608 11.6362 4.77445 11.1667 5.03345C10.9374 5.16025 10.9968 5.43544 11.1586 5.56763C11.3043 5.68634 11.7252 5.62429 11.9329 5.62969C12.2378 5.64048 13.0337 5.83473 13.2819 5.93455H13.2792ZM13.2522 7.48854C13.7756 7.70168 14.2261 8.01734 14.5472 8.41932C14.9573 8.93193 15.0706 9.226 15.2541 9.93825C15.3296 10.2296 15.2945 10.7449 15.3512 10.9473C15.4267 11.2036 15.942 11.2764 15.942 10.78C15.942 9.30963 15.4915 8.449 14.5823 7.57488C14.2261 7.23224 13.6164 6.91929 13.1389 6.78709C12.8421 6.70345 11.4176 6.20704 11.5579 6.94627C11.6092 7.21875 12.1191 7.1648 12.3835 7.23224C12.7558 7.32397 12.9204 7.35365 13.2495 7.48854H13.2522ZM13.1955 8.33569C13.0687 8.28713 12.2675 8.07939 12.1649 8.19C11.5201 8.87797 12.888 8.708 13.3358 9.15315C13.6002 9.41485 13.6488 9.54705 13.7405 9.94364C13.8053 10.2296 13.7648 10.8124 14.2774 10.5696C14.7334 10.3537 14.0697 9.02096 13.8916 8.8375C13.6704 8.60548 13.5436 8.46789 13.1955 8.33569V8.33569ZM8.39867 6.58205C7.88606 5.8698 7.29522 5.23849 6.38872 6.03437C5.84375 6.5119 4.96153 7.27002 5.20434 8.09018C5.6414 9.57133 6.6801 11.2386 7.4463 12.3745C8.0992 13.343 9.30516 14.6353 10.7431 15.5769C11.5309 16.0949 14.1209 17.7055 15.2433 17.576C15.9015 17.5005 16.6408 16.6264 16.9753 16.0463C17.4906 15.1506 16.4789 14.5786 15.9474 14.1632C15.478 13.7963 14.4231 12.9653 13.7135 13.316C12.8178 13.7558 13.3979 14.7243 11.6982 14.1065C10.3304 13.6074 8.97872 12.0507 8.56594 10.7476C8.15316 9.44992 9.59654 9.72511 9.59114 8.62706C9.58844 8.00654 8.82224 7.1621 8.40406 6.57935L8.39867 6.58205ZM6.413 19.2406C6.413 19.2406 4.18723 18.871 3.05411 16.7667C1.92099 14.665 2.02351 12.0885 2.00462 10.5642C1.98304 9.03984 2.1692 5.59731 4.45702 4.03252C7.77545 1.76089 15.513 1.76089 18.8315 4.03252C21.1193 5.59731 21.3055 9.03984 21.2839 10.5642C21.2623 12.0885 21.3675 14.665 20.2317 16.7667C19.0986 18.8683 16.8728 19.2406 16.8728 19.2406C15.1461 19.7074 12.6479 20.0095 10.0417 19.8315L7.14684 23.2767C7.05241 23.3873 6.75024 23.7084 6.58027 23.6463C6.41031 23.587 6.4211 23.3253 6.4211 23.1445V19.2433L6.41031 19.2406H6.413Z" fill="#FEFEFE"/>
</svg>
