<?xml version="1.0" encoding="UTF-8"?>
<!DOCTYPE svg PUBLIC "-//W3C//DTD SVG 1.1//EN" "http://www.w3.org/Graphics/SVG/1.1/DTD/svg11.dtd">
<!-- Creator: CorelDRAW 2019 (64-Bit) -->
<svg xmlns="http://www.w3.org/2000/svg" xml:space="preserve" width="35.9834mm" height="35.9834mm" version="1.1" style="shape-rendering:geometricPrecision; text-rendering:geometricPrecision; image-rendering:optimizeQuality; fill-rule:evenodd; clip-rule:evenodd"
viewBox="0 0 264.84 264.84"
 xmlns:xlink="http://www.w3.org/1999/xlink">
 <defs>
  <style type="text/css">
   <![CDATA[
    .fil0 {fill:#7B519C}
    .fil1 {fill:#FEFEFE}
   ]]>
  </style>
 </defs>
 <g id="Слой_x0020_1">
  <metadata id="CorelCorpID_0Corel-Layer"/>
  <path class="fil0" d="M132.42 0c73.13,0 132.42,59.29 132.42,132.42 0,73.13 -59.29,132.42 -132.42,132.42 -73.13,0 -132.42,-59.29 -132.42,-132.42 0,-73.13 59.29,-132.42 132.42,-132.42z"/>
  <path class="fil1" d="M154.62 71.17c19.67,7.79 30.73,18.56 37.86,38.07 1.26,3.45 2.89,11.62 3.22,15.78 0.31,3.96 -0.69,16.17 5.74,12.55 4.79,-2.69 -1.17,-27.16 -2.6,-31.5 -5.97,-18.05 -19.64,-31.36 -36.51,-39.49 -3.7,-1.78 -26.58,-8.7 -31.95,-5.73 -2.62,1.45 -1.95,4.62 -0.1,6.12 1.68,1.36 6.49,0.64 8.87,0.72 3.5,0.12 12.61,2.36 15.46,3.49l-0 0zm-0.32 17.81c5.99,2.45 11.17,6.08 14.85,10.68 4.71,5.87 6,9.26 8.1,17.43 0.86,3.35 0.45,9.26 1.12,11.57 0.85,2.94 6.76,3.78 6.76,-1.93 0,-16.87 -5.15,-26.74 -15.59,-36.74 -4.09,-3.92 -11.08,-7.51 -16.54,-9.03 -3.41,-0.95 -19.73,-6.65 -18.11,1.84 0.6,3.13 6.43,2.51 9.47,3.27 4.27,1.06 6.16,1.38 9.92,2.93l0 -0zm-0.66 9.7c-1.44,-0.55 -10.63,-2.94 -11.83,-1.66 -7.4,7.88 8.28,5.94 13.44,11.05 3.03,3 3.6,4.53 4.63,9.06 0.75,3.27 0.27,9.96 6.15,7.17 5.23,-2.48 -2.39,-17.75 -4.41,-19.87 -2.53,-2.65 -3.99,-4.22 -7.98,-5.76l0 -0zm-54.98 -20.12c-5.88,-8.17 -12.65,-15.4 -23.06,-6.29 -6.25,5.47 -16.36,14.16 -13.57,23.59 5.03,17 16.91,36.1 25.69,49.13 7.48,11.09 21.32,25.92 37.79,36.73 9.04,5.93 38.72,24.42 51.6,22.92 7.55,-0.88 16.02,-10.89 19.86,-17.55 5.92,-10.26 -5.7,-16.81 -11.8,-21.58 -5.38,-4.2 -17.47,-13.74 -25.62,-9.72 -10.26,5.05 -3.62,16.15 -23.11,9.05 -15.69,-5.72 -31.19,-23.58 -35.93,-38.5 -4.72,-14.88 11.83,-11.73 11.75,-24.3 -0.04,-7.11 -8.8,-16.79 -13.62,-23.47l-0 -0z"/>
 </g>
</svg>
