<svg width="22" height="22" viewBox="0 0 22 22" fill="none" xmlns="http://www.w3.org/2000/svg">
<path fill-rule="evenodd" clip-rule="evenodd" d="M4.52387 0.0618662L16.7465 0.0551414C19.2044 0.0551414 21.2185 2.0659 21.2185 4.52387L21.2253 16.7464C21.2253 19.2044 19.2145 21.2185 16.7565 21.2185L4.53396 21.2253C2.07599 21.2253 0.06187 19.2145 0.06187 16.7565L0.0551453 4.53395C0.0551453 2.07599 2.0659 0.0618662 4.52387 0.0618662V0.0618662Z" fill="#4680C2"/>
<path fill-rule="evenodd" clip-rule="evenodd" d="M11.9146 12.3248C12.6039 12.1432 13.1789 12.6745 13.6395 13.1116C13.7505 13.2159 13.8278 13.3302 13.9321 13.4344C14.0397 13.542 14.1607 13.6395 14.275 13.7606C14.4869 13.9892 14.6853 14.2649 14.9274 14.4499C15.2636 14.7054 15.4351 14.7021 15.9529 14.7021C16.3161 14.7021 16.881 14.7357 17.2239 14.6886C18.8278 14.4701 15.3107 11.4102 15.1728 11.1076C15.0215 10.7814 15.3847 10.3947 15.5225 10.2098C15.8352 9.78613 17.4997 7.44249 17.3181 6.80698C17.1331 6.52454 16.7397 6.59178 16.3665 6.59178C14.3894 6.59515 15.035 6.48419 14.1809 7.99393C13.7875 8.68997 12.7418 10.5595 12.0054 10.5124C11.612 10.3443 11.9617 7.43576 11.7868 6.86078C11.6759 6.49091 11.1681 6.59178 10.7444 6.59178C10.3141 6.59178 9.88366 6.59178 9.45662 6.59178C9.1002 6.59178 8.51513 6.53126 8.60255 7.00873C8.62609 7.13987 8.78413 7.30127 8.84465 7.38533C8.95561 7.52991 9.0195 7.6476 9.08339 7.81572C9.26496 8.29992 9.19771 9.69198 9.19771 10.2804C9.19771 10.657 9.2885 11.2656 8.81439 11.1311C8.11836 10.9327 7.04237 8.75385 6.72966 8.05446C6.58843 7.74175 6.49428 7.44249 6.36651 7.12978C6.19502 6.70947 6.07398 6.59851 5.53598 6.59178C3.67317 6.57161 2.9805 6.20846 4.35575 9.14054C4.94082 10.388 5.59987 11.3463 6.33289 12.3214C6.94485 13.1385 8.02421 14.043 9.3423 14.4701C9.86684 14.6415 11.0303 14.8366 11.5548 14.5978C12.0827 14.3557 11.6759 12.9637 11.9146 12.3282V12.3248Z" fill="#FCFEFE"/>
</svg>
