<?xml version="1.0" encoding="UTF-8"?>
<!DOCTYPE svg PUBLIC "-//W3C//DTD SVG 1.1//EN" "http://www.w3.org/Graphics/SVG/1.1/DTD/svg11.dtd">
<!-- Creator: CorelDRAW 2019 (64-Bit) -->
<svg xmlns="http://www.w3.org/2000/svg" xml:space="preserve" width="25.4002mm" height="25.4002mm" version="1.1" style="shape-rendering:geometricPrecision; text-rendering:geometricPrecision; image-rendering:optimizeQuality; fill-rule:evenodd; clip-rule:evenodd"
viewBox="0 0 584.66 584.66"
 xmlns:xlink="http://www.w3.org/1999/xlink">
 <defs>
  <style type="text/css">
   <![CDATA[
    .fil0 {fill:#AE35F0}
    .fil1 {fill:#FCFEFE}
   ]]>
  </style>
 </defs>
 <g id="Слой_x0020_1">
  <metadata id="CorelCorpID_0Corel-Layer"/>
  <path class="fil0" d="M123.42 0.15l337.57 -0.15c67.92,-0.04 123.49,55.49 123.52,123.41l0.15 337.57c0.04,67.92 -55.49,123.49 -123.41,123.52l-337.57 0.15c-67.92,0.04 -123.49,-55.49 -123.52,-123.41l-0.15 -337.57c-0.04,-67.92 55.49,-123.49 123.41,-123.52z"/>
  <path class="fil1" d="M327.54 338.88c19.01,-4.98 34.89,9.7 47.68,21.73 3.05,2.87 5.2,6.03 8.1,8.94 3.02,2.98 6.36,5.67 9.49,9.01 5.85,6.32 11.3,13.96 18.03,19.04 9.3,7.05 14.06,6.98 28.31,6.94 10.07,-0.04 25.66,0.91 35.07,-0.36 44.3,-6.03 -52.84,-90.6 -56.66,-98.88 -4.18,-9.01 5.89,-19.66 9.7,-24.82 8.65,-11.67 54.58,-76.46 49.61,-94.01 -5.09,-7.81 -15.99,-5.96 -26.31,-5.92 -54.58,0.11 -36.78,-2.98 -60.32,38.7 -10.87,19.26 -39.72,70.9 -60.11,69.59 -10.87,-4.62 -1.2,-84.97 -6,-100.85 -3.09,-10.21 -17.08,-7.45 -28.82,-7.45 -11.88,0 -23.73,0.04 -35.61,0 -9.81,-0.04 -25.98,-1.63 -23.59,11.56 0.65,3.63 4.98,8.1 6.69,10.36 3.05,4 4.83,7.23 6.61,11.92 5.02,13.34 3.16,51.82 3.2,68.07 0.04,10.39 2.51,27.26 -10.57,23.51 -19.19,-5.49 -48.95,-65.7 -57.6,-85 -3.89,-8.65 -6.47,-16.9 -9.99,-25.58 -4.72,-11.59 -8.1,-14.68 -22.97,-14.86 -51.46,-0.58 -70.61,-10.57 -32.63,70.36 16.17,34.45 34.34,60.91 54.58,87.87 16.93,22.6 46.74,47.53 83.11,59.38 14.5,4.72 46.62,10.1 61.09,3.49 14.57,-6.65 3.34,-45.14 9.96,-62.69l-0.04 -0.04z"/>
 </g>
</svg>
