<svg width="24" height="24" viewBox="0 0 24 24" fill="none" xmlns="http://www.w3.org/2000/svg">
<path fill-rule="evenodd" clip-rule="evenodd" d="M8.02472 5.71676C8.36646 5.62266 9.15146 5.63504 9.37186 5.8381C9.54521 5.99659 9.76808 6.57853 9.88694 6.8757C10.3054 7.91577 10.7982 8.55714 10.4194 9.21833C9.80275 10.2931 9.27528 9.83741 10.2089 11.0979C10.9047 12.0364 11.7021 12.7224 12.7645 13.2597C13.2424 13.5024 13.5693 13.7005 13.8268 13.4653C14.5177 12.8338 14.6316 11.8977 15.5553 12.2618C16.2858 12.549 17.0238 12.9502 17.7097 13.2746C18.1703 13.4925 18.2149 13.7228 18.1282 14.3568C18.0663 14.8 17.9054 15.2359 17.6974 15.481C17.207 16.058 16.6003 16.4072 15.6395 16.5855C14.748 16.7514 13.8763 16.3527 13.1087 16.0853C11.7764 15.6197 11.0805 15.2433 10.0652 14.4088C9.46596 13.916 8.99298 13.4232 8.47542 12.8338C7.88853 12.1627 6.97227 10.8527 6.64044 10.0083C6.16994 8.80478 6.21699 7.30163 7.106 6.3829C7.38335 6.09565 7.51707 5.85792 8.02968 5.71924L8.02472 5.71676ZM1.56887 21.7066C1.89575 21.6719 5.10015 20.6021 5.71676 20.4114C6.95494 20.0276 7.09857 19.775 7.72509 20.087C8.31446 20.3793 9.04746 20.6417 9.75322 20.8126C12.9081 21.5778 15.8401 20.8052 18.3536 18.9529C22.4396 15.9416 23.5292 9.69379 20.4238 5.35769C20.1638 4.99614 19.4878 4.15914 19.1906 3.90407C18.1258 2.98287 17.2739 2.30187 15.8351 1.76203C7.7449 -1.27893 0.256405 6.06345 2.41083 13.755C3.06459 16.0877 3.60939 15.6742 3.27013 16.6548L1.56392 21.7066H1.56887Z" fill="#54CC61"/>
<path fill-rule="evenodd" clip-rule="evenodd" d="M1.57135 21.7066L3.27756 16.6548C3.61682 15.6742 3.06955 16.0877 2.41827 13.755C0.26384 6.06345 7.75233 -1.27893 15.8426 1.76203C17.2789 2.30187 18.1332 2.98287 19.198 3.90407C19.4952 4.15914 20.1712 4.99614 20.4313 5.35769C23.5341 9.69379 22.447 15.9416 18.361 18.9529C15.8475 20.8052 12.9131 21.5778 9.76065 20.8126C9.05489 20.6417 8.32189 20.3817 7.73252 20.087C7.106 19.775 6.96238 20.0276 5.7242 20.4114C5.10511 20.6021 1.90319 21.6719 1.57631 21.7066H1.57135ZM2.44055 16.2363C2.44055 16.5434 0.199455 22.7615 0.169739 23.1057L5.83811 21.3054C7.78948 20.6541 6.93018 20.8225 8.56953 21.397C11.8457 22.5461 15.6123 21.9616 18.413 20.0251C19.775 19.0841 20.7235 18.0143 21.5803 16.6201C22.4297 15.2408 23.1082 13.1978 23.1082 11.5164C23.1082 9.41396 22.8853 8.2154 22.0533 6.42005L21.3574 5.14225C20.9686 4.4984 20.3322 3.81245 19.8072 3.28746C16.0357 -0.486502 9.86714 -0.870336 5.536 2.36873C4.99863 2.7699 4.55784 3.15374 4.12447 3.64653C3.60692 4.23838 3.43605 4.33991 2.92592 5.1373C1.96757 6.63549 1.17019 8.70572 1.18257 10.5036C1.19 11.7318 1.11075 12.2766 1.45497 13.6337C1.58621 14.1463 1.70013 14.54 1.87842 15.0006C1.96262 15.2161 2.43313 16.162 2.43313 16.2363H2.44055Z" fill="#EDEDED"/>
<path fill-rule="evenodd" clip-rule="evenodd" d="M8.02473 5.71676C7.51461 5.85792 7.37841 6.09565 7.10105 6.38043C6.21204 7.29915 6.16499 8.8023 6.6355 10.0058C6.96486 10.8502 7.88111 12.1627 8.47048 12.8313C8.98804 13.4207 9.46102 13.9135 10.0603 14.4063C11.0756 15.2408 11.7715 15.6172 13.1037 16.0828C13.8714 16.3502 14.7431 16.7489 15.6346 16.583C16.5954 16.4047 17.2021 16.0531 17.6924 15.4785C17.9004 15.2334 18.0614 14.8 18.1233 14.3543C18.21 13.7203 18.1654 13.49 17.7048 13.2721C17.0188 12.9452 16.2809 12.5465 15.5504 12.2593C14.6267 11.8953 14.5128 12.8313 13.8219 13.4628C13.5643 13.6981 13.2399 13.4999 12.7595 13.2573C11.6972 12.7199 10.8998 12.0339 10.2039 11.0954C9.27034 9.83741 9.80028 10.2931 10.4144 9.21585C10.7933 8.55219 10.3005 7.91329 9.882 6.87322C9.76313 6.57606 9.53779 5.99411 9.36692 5.83563C9.14652 5.63257 8.36152 5.62019 8.01978 5.71429L8.02473 5.71676Z" fill="#FEFFFD"/>
</svg>
