<?xml version="1.0" encoding="UTF-8"?>
<!DOCTYPE svg PUBLIC "-//W3C//DTD SVG 1.1//EN" "http://www.w3.org/Graphics/SVG/1.1/DTD/svg11.dtd">
<!-- Creator: CorelDRAW 2019 (64-Bit) -->
<svg xmlns="http://www.w3.org/2000/svg" xml:space="preserve" width="35.9834mm" height="35.9834mm" version="1.1" style="shape-rendering:geometricPrecision; text-rendering:geometricPrecision; image-rendering:optimizeQuality; fill-rule:evenodd; clip-rule:evenodd"
viewBox="0 0 221.42 221.42"
 xmlns:xlink="http://www.w3.org/1999/xlink">
 <defs>
  <style type="text/css">
   <![CDATA[
    .fil0 {fill:#54CC61}
    .fil1 {fill:#FEFFFD}
   ]]>
  </style>
 </defs>
 <g id="Слой_x0020_1">
  <metadata id="CorelCorpID_0Corel-Layer"/>
  <path class="fil0" d="M110.71 0c61.14,0 110.71,49.57 110.71,110.71 0,61.14 -49.57,110.71 -110.71,110.71 -61.14,0 -110.71,-49.57 -110.71,-110.71 0,-61.14 49.57,-110.71 110.71,-110.71z"/>
  <path class="fil1" d="M64.91 51.91c-5.54,1.52 -7,4.1 -10,7.2 -9.63,9.95 -10.14,26.26 -5.05,39.29 3.58,9.16 13.5,23.37 19.87,30.63 5.61,6.4 10.73,11.73 17.23,17.08 11.01,9.04 18.55,13.11 32.99,18.16 8.32,2.91 17.76,7.22 27.43,5.42 10.42,-1.94 16.98,-5.74 22.3,-11.98 2.26,-2.65 4.01,-7.36 4.67,-12.17 0.94,-6.87 0.46,-9.36 -4.53,-11.72 -7.44,-3.54 -15.44,-7.87 -23.35,-10.99 -10.01,-3.95 -11.24,6.19 -18.73,13.04 -2.79,2.55 -6.32,0.39 -11.51,-2.23 -11.5,-5.83 -20.15,-13.26 -27.69,-23.42 -10.12,-13.64 -4.38,-8.71 2.29,-20.36 4.11,-7.18 -1.24,-14.12 -5.76,-25.39 -1.29,-3.22 -3.72,-9.54 -5.59,-11.25 -2.4,-2.21 -10.91,-2.33 -14.6,-1.31l-0 -0z"/>
 </g>
</svg>
