<svg width="83" height="88" viewBox="0 0 83 88" fill="none" xmlns="http://www.w3.org/2000/svg">
<path fill-rule="evenodd" clip-rule="evenodd" d="M53.0099 7.8874C52.6115 4.49507 49.7269 1.86218 46.2274 1.86218L8.39484 1.86246C4.62476 1.86246 1.56623 4.92071 1.56623 8.69106V12.7016L5.54797 41.9035L1.56555 74.5816V79.0431C1.56555 82.8153 4.62476 85.8717 8.39484 85.8717H46.2274C49.9997 85.8717 53.056 82.8153 53.056 79.0431V78.5596L53.0534 74.5814L49.1194 41.9013L53.0125 12.6481L53.0099 7.88753V7.8874Z" fill="#AE35F0"/>
<path fill-rule="evenodd" clip-rule="evenodd" d="M53.0098 7.88749C52.6115 4.49516 49.7268 1.86255 46.2273 1.86255H39.8877L23.8196 85.8718H46.2275C49.9995 85.8718 53.0561 82.8154 53.0561 79.0432V78.5599L53.0535 74.5817L49.1195 41.9013L53.0125 12.648L53.0099 7.88749H53.0098Z" fill="#9111D8"/>
<path fill-rule="evenodd" clip-rule="evenodd" d="M1.56537 12.7019H53.0565V74.582H1.56537V12.7019V12.7019Z" fill="white"/>
<path fill-rule="evenodd" clip-rule="evenodd" d="M53.0453 62.6787H36.4453L28.2888 70.8346H36.4453L53.0567 70.9401L53.0453 62.6786V62.6787Z" fill="#E1EAF8"/>
<path fill-rule="evenodd" clip-rule="evenodd" d="M53.0314 40.7867H36.4452V47.4424L28.2893 55.599H53.0407L53.0313 40.7869L53.0314 40.7867Z" fill="#E1EAF8"/>
<path fill-rule="evenodd" clip-rule="evenodd" d="M36.4454 17.4622V25.6977L28.2896 33.8536H53.0272L53.0127 12.6478H36.4456V17.462L36.4454 17.4622Z" fill="#E1EAF8"/>
<path fill-rule="evenodd" clip-rule="evenodd" d="M81.0303 57.9181V78.56H31.685V66.0744H23.5289L31.685 57.9182H81.0303V57.9181Z" fill="#FE7449"/>
<path fill-rule="evenodd" clip-rule="evenodd" d="M81.0305 36.0267V50.8383H23.5289L31.685 42.6824V36.0267H81.0303H81.0305Z" fill="#E81797"/>
<path fill-rule="evenodd" clip-rule="evenodd" d="M81.0305 7.88745V29.0938H23.5289L31.685 20.9372V7.88745H81.0303H81.0305Z" fill="#9111D8"/>
<path fill-rule="evenodd" clip-rule="evenodd" d="M27.3113 82.3774C28.3727 82.3774 29.2366 81.514 29.2366 80.4526C29.2366 79.3911 28.3729 78.5273 27.3113 78.5273C26.2498 78.5273 25.386 79.3911 25.386 80.4526C25.386 81.514 26.2498 82.3774 27.3113 82.3774ZM27.3113 80.3384C27.3743 80.3384 27.4256 80.3895 27.4256 80.4526C27.4256 80.5156 27.374 80.5663 27.3113 80.5663C27.2487 80.5663 27.1971 80.5157 27.1971 80.4526C27.1971 80.3893 27.2487 80.3384 27.3113 80.3384Z" fill="white"/>
<path fill-rule="evenodd" clip-rule="evenodd" d="M39.2295 23.0212H59.0083C59.7091 23.0212 60.2762 22.4535 60.2762 21.7533C60.2762 21.0535 59.7091 20.4858 59.0083 20.4858H39.2295C38.5297 20.4858 37.9616 21.0535 37.9616 21.7537C37.9616 22.4535 38.5297 23.0212 39.2295 23.0212ZM39.2295 16.9036H73.4858C74.1866 16.9036 74.7537 16.3364 74.7537 15.6361C74.7537 14.936 74.1866 14.3682 73.4858 14.3682H39.2295C38.5297 14.3682 37.9616 14.9359 37.9616 15.6361C37.9616 16.3366 38.5297 16.904 39.2295 16.904V16.9037V16.9036Z" fill="white"/>
<path fill-rule="evenodd" clip-rule="evenodd" d="M39.2295 72.5653H58.6009C59.3008 72.5653 59.8689 71.9976 59.8689 71.2973C59.8689 70.5969 59.3008 70.0298 58.6009 70.0298H39.2295C38.5297 70.0298 37.9616 70.597 37.9616 71.2973C37.9616 71.9974 38.5297 72.5653 39.2295 72.5653ZM39.2295 66.4477H73.4858C74.1866 66.4477 74.7537 65.8805 74.7537 65.1802C74.7537 64.4801 74.1866 63.9122 73.4858 63.9122H39.2295C38.5297 63.9122 37.9616 64.4799 37.9616 65.1802C37.9616 65.8806 38.5297 66.4477 39.2295 66.4477Z" fill="white"/>
<path fill-rule="evenodd" clip-rule="evenodd" d="M39.2295 44.7005H73.4858C74.1863 44.7005 74.7537 44.1333 74.7537 43.4326C74.7537 42.7327 74.1866 42.165 73.4858 42.165H39.2295C38.5297 42.165 37.9616 42.7327 37.9616 43.4326C37.9616 44.1333 38.5297 44.7005 39.2295 44.7005Z" fill="white"/>
<path fill-rule="evenodd" clip-rule="evenodd" d="M81.0311 30.3618C81.7309 30.3618 82.2986 29.7943 82.2986 29.0938V7.88747C82.2986 7.18766 81.7309 6.61954 81.0311 6.61954H54.057C53.1358 3.11613 49.9488 0.594604 46.2281 0.594604H8.39484C3.93083 0.594604 0.298584 4.22685 0.298584 8.69113V79.0432C0.298584 83.5072 3.93083 87.1397 8.39484 87.1397H46.2281C50.4274 87.1397 53.8898 83.9245 54.2856 79.8262H81.0305C81.731 79.8262 82.298 79.2591 82.298 78.5583V57.918C82.298 57.2179 81.7309 56.6501 81.0305 56.6501H54.3246V52.1066H81.0311C81.7309 52.1066 82.2986 51.5389 82.2986 50.8387V36.0266C82.2986 35.3268 81.7309 34.759 81.0311 34.759H54.3246V30.3615H81.0311V30.3618ZM79.7631 27.826H26.5889L32.5819 21.834C32.8195 21.5971 32.9529 21.2739 32.9529 20.9379V9.15526H79.7625V27.8259H79.7631V27.826ZM79.7631 77.2914H32.9529V66.0743C32.9529 65.3745 32.3857 64.8068 31.6849 64.8068H26.5896L32.2101 59.1856H79.763V77.2914H79.7631ZM79.7631 49.5715H26.5889L32.5819 43.5791C32.8195 43.3415 32.9529 43.0188 32.9529 42.6824V37.2946H79.7625V49.5715H79.7631V49.5715ZM51.7888 34.7593H31.6849C30.9844 34.7593 30.4174 35.327 30.4174 36.0268V42.1577L22.632 49.9424C22.2696 50.3048 22.1611 50.8503 22.3573 51.3238C22.5533 51.7979 23.0161 52.1069 23.5286 52.1069H51.7886V56.6503H31.6848C31.3488 56.6503 31.0266 56.7837 30.7885 57.0222L22.6319 65.1778C22.2694 65.5403 22.1609 66.0858 22.3572 66.5593C22.5532 67.0334 23.0159 67.3424 23.5285 67.3424H30.4171V78.5588C30.4171 79.2593 30.9843 79.8263 31.6847 79.8263H51.7323C51.3502 82.5228 49.0277 84.6041 46.2277 84.6041H8.39443C5.32812 84.6041 2.83362 82.1091 2.83362 79.0433V8.69127C2.83362 5.62496 5.32799 3.13019 8.39443 3.13019H46.2277C48.5478 3.13019 50.5645 4.55778 51.3906 6.61968H31.6848C30.9843 6.61968 30.4173 7.1878 30.4173 7.88761V20.4127L22.6319 28.1981C22.2694 28.5605 22.1609 29.106 22.3572 29.5795C22.5532 30.0527 23.0159 30.3619 23.5285 30.3619H51.7885V34.7595L51.7888 34.7593Z" fill="#434C54"/>
</svg>
