<svg width="84" height="94" viewBox="0 0 84 94" fill="none" xmlns="http://www.w3.org/2000/svg">
<path fill-rule="evenodd" clip-rule="evenodd" d="M72.3465 36.8446C72.3465 56.2166 56.6425 71.9206 37.2716 71.9206C17.8996 71.9206 2.19562 56.2166 2.19562 36.8446C2.19562 17.4727 17.8996 1.76868 37.2716 1.76868C56.6435 1.76868 72.3465 17.4727 72.3465 36.8446Z" fill="white"/>
<path fill-rule="evenodd" clip-rule="evenodd" d="M72.3465 36.8446H37.2685L12.4802 12.0563L12.4659 12.0451C18.8136 5.69544 27.582 1.76868 37.2706 1.76868C56.6415 1.76868 72.3455 17.4737 72.3455 36.8446H72.3465Z" fill="#9111D8"/>
<path fill-rule="evenodd" clip-rule="evenodd" d="M70.0826 49.265C65.3438 44.8604 58.9942 42.1644 52.0138 42.1644C37.3532 42.1644 25.4679 54.0497 25.4679 68.7113C25.4679 69.1067 25.4781 69.501 25.4954 69.8922C29.1766 71.2045 33.1411 71.9208 37.2727 71.9208C52.2706 71.9208 65.0677 62.5064 70.0837 49.264L70.0826 49.265Z" fill="#E1EAF8"/>
<path fill-rule="evenodd" clip-rule="evenodd" d="M82.4069 66.9151C82.4069 80.5854 71.3256 91.6657 57.6563 91.6657C43.987 91.6657 32.9056 80.5844 32.9056 66.9151C32.9056 53.2458 43.987 42.1644 57.6563 42.1644C71.3256 42.1644 82.4069 53.2458 82.4069 66.9151Z" fill="white"/>
<path fill-rule="evenodd" clip-rule="evenodd" d="M71.1035 46.1319C67.2308 43.6214 62.6142 42.1644 57.6564 42.1644V66.914L75.1373 84.396L75.1567 84.4164C79.6357 79.9374 82.406 73.7497 82.406 66.9151C82.406 58.2047 77.9046 50.5437 71.1025 46.133L71.1035 46.1319Z" fill="#E81797"/>
<path fill-rule="evenodd" clip-rule="evenodd" d="M57.6564 66.9149H82.407C82.407 73.7485 79.6367 79.9372 75.1577 84.4162L75.1383 84.3958L57.6574 66.9149H57.6564Z" fill="#FE7449"/>
<path fill-rule="evenodd" clip-rule="evenodd" d="M37.2695 36.8448L12.4822 12.0565L12.4679 12.0453C18.8145 5.69666 27.583 1.7699 37.2715 1.7699L37.2705 36.8459L37.2695 36.8448Z" fill="#AE35F0"/>
<path fill-rule="evenodd" clip-rule="evenodd" d="M57.6562 40.8073C43.2615 40.8073 31.5495 52.5193 31.5495 66.914C31.5495 81.3088 43.2615 93.0208 57.6562 93.0208C72.052 93.0208 83.763 81.3088 83.763 66.914C83.763 52.5183 72.052 40.8073 57.6562 40.8073V40.8073ZM75.1209 82.4601L73.2023 84.3786C69.0667 88.0639 63.6187 90.3075 57.6562 90.3075C44.7572 90.3075 34.2627 79.813 34.2627 66.914C34.2627 54.4704 44.0297 44.2653 56.3001 43.5603H59.0134C70.8344 44.2399 80.3314 53.7358 81.01 65.5569V68.2701C80.6982 73.7008 78.5249 78.6393 75.1209 82.4591V82.4601Z" fill="#434C54"/>
<path fill-rule="evenodd" clip-rule="evenodd" d="M37.2706 0.261963C17.1405 0.261963 0.763062 16.6394 0.763062 36.7695C0.763062 44.9246 3.39177 52.6375 8.36696 59.0748C13.1852 65.3093 19.9995 69.8892 27.5545 71.9707C27.6747 72.0044 27.796 72.0196 27.9152 72.0196C28.5102 72.0196 29.0563 71.6243 29.2224 71.0232C29.4211 70.3008 28.9972 69.554 28.2749 69.3553C13.6733 65.3338 3.47634 51.9345 3.47634 36.7705C3.47634 27.9602 6.86717 19.9274 12.4099 13.9058L14.3264 11.9842C20.3571 6.39766 28.4216 2.97626 37.2706 2.97626C55.4759 2.97626 70.3628 17.4474 71.0383 35.4897L71.0332 38.203C71.0087 38.8011 70.969 39.4002 70.914 39.9901C70.8437 40.736 71.3908 41.3982 72.1366 41.4685C72.8835 41.5388 73.5447 40.9917 73.615 40.2459C73.723 39.0996 73.778 37.93 73.778 36.7695C73.778 16.6394 57.4006 0.261963 37.2706 0.261963V0.261963Z" fill="#434C54"/>
</svg>
