<svg width="101" height="81" viewBox="0 0 101 81" fill="none" xmlns="http://www.w3.org/2000/svg">
<path fill-rule="evenodd" clip-rule="evenodd" d="M96.4159 2.67615H4.76801C3.27151 2.67615 2.0575 3.89016 2.0575 5.38666V55.0581L49.736 61.8923L99.1265 55.0581V5.38666C99.1265 3.89016 97.9132 2.67615 96.4159 2.67615V2.67615Z" fill="white"/>
<path fill-rule="evenodd" clip-rule="evenodd" d="M96.4159 2.67615H61.5878L24.339 64.2473H96.4151C97.9116 64.2473 99.1257 63.0325 99.1257 61.5346V5.3874C99.1257 3.8909 97.9116 2.67689 96.4151 2.67689L96.4159 2.67615Z" fill="#E1EAF8"/>
<path fill-rule="evenodd" clip-rule="evenodd" d="M59.2297 62.8997L61.2632 79.7049H39.9235L41.9569 62.8997H59.2305H59.2297Z" fill="#AE35F0"/>
<path fill-rule="evenodd" clip-rule="evenodd" d="M60.5781 74.05L59.2291 62.8997H41.9556L40.6066 74.05H60.5774H60.5781Z" fill="#9111D8"/>
<path fill-rule="evenodd" clip-rule="evenodd" d="M29.8973 55.0581H2.0575V61.5338C2.0575 63.0333 3.27151 64.2466 4.76801 64.2466H96.4159C97.9124 64.2466 99.1272 63.0318 99.1272 61.5338V55.0581H29.8973Z" fill="#AE35F0"/>
<path fill-rule="evenodd" clip-rule="evenodd" d="M29.8979 55.0581L24.339 64.2466H96.4151C97.9116 64.2466 99.1257 63.0318 99.1257 61.5338V55.0581H29.8972H29.8979Z" fill="#9111D8"/>
<path fill-rule="evenodd" clip-rule="evenodd" d="M73.0317 39.2384H82.0078V45.8698H73.0317V39.2384Z" fill="#E81797"/>
<path fill-rule="evenodd" clip-rule="evenodd" d="M55.081 26.1362H64.057V45.9794H55.081V26.1362V26.1362Z" fill="#FE7449"/>
<path fill-rule="evenodd" clip-rule="evenodd" d="M19.1782 32.067H28.1543V45.9803H19.1782V32.067Z" fill="#FE7449"/>
<path fill-rule="evenodd" clip-rule="evenodd" d="M37.129 19.3221H46.1051V45.9796H37.129V19.3221Z" fill="#E81797"/>
<path fill-rule="evenodd" clip-rule="evenodd" d="M96.4144 0.970947H83.19C82.3817 0.970947 81.7253 1.62737 81.7253 2.43573C81.7253 3.2441 82.3817 3.90052 83.19 3.90052H96.4144C97.1018 3.90052 97.6609 4.45959 97.6609 5.14699V61.2942C97.6609 61.9816 97.1018 62.5406 96.4144 62.5406H4.7687C4.08129 62.5406 3.52223 61.9816 3.52223 61.2942V5.14699C3.52223 4.45959 4.08129 3.90052 4.7687 3.90052H77.398C78.2078 3.90052 78.8628 3.24483 78.8628 2.43573C78.8628 1.62737 78.2078 0.970947 77.398 0.970947H4.7687C2.46605 0.970947 0.591919 2.84508 0.591919 5.14773V61.2949C0.591919 63.5983 2.46605 65.4709 4.7687 65.4709H57.9442L59.5912 78.0013H41.5926L42.6289 70.1227C42.7351 69.3202 42.1694 68.5849 41.3677 68.4794C40.5667 68.3732 39.8299 68.9389 39.7244 69.7406L38.638 78.002H31.7824C30.974 78.002 30.3176 78.657 30.3176 79.4668C30.3176 80.2751 30.974 80.9316 31.7824 80.9316H69.4022C70.2105 80.9316 70.867 80.2751 70.867 79.4668C70.867 78.657 70.2105 78.002 69.4022 78.002H62.5466L60.8996 65.4717H96.4166C98.7193 65.4717 100.592 63.5983 100.592 61.2956V5.14846C100.592 2.84581 98.7178 0.971686 96.4151 0.971686L96.4144 0.970947Z" fill="#434C54"/>
</svg>
