<svg width="113" height="86" viewBox="0 0 113 86" fill="none" xmlns="http://www.w3.org/2000/svg">
<path fill-rule="evenodd" clip-rule="evenodd" d="M94.6518 4.85992V51.7018L48.5708 54.0704L2.48981 51.7018V4.85992C2.48981 3.26191 3.78444 1.96729 5.38244 1.96729H91.7608C93.3588 1.96729 94.6502 3.26191 94.6502 4.85992H94.6518Z" fill="white"/>
<path fill-rule="evenodd" clip-rule="evenodd" d="M88.701 33.3693H70.7287C67.914 33.3693 65.6313 35.6519 65.6313 38.4667V60.4251H91.6943C93.3263 60.4251 94.6518 59.1012 94.6518 57.4675V33.3693H88.7027H88.701Z" fill="#E1EAF8"/>
<path fill-rule="evenodd" clip-rule="evenodd" d="M111.208 75.5861V79.1796C111.208 81.9927 108.925 84.2753 106.109 84.2753H76.6795C73.8631 84.2753 71.5805 81.9927 71.5805 79.1796V75.5861L91.3941 73.3099L111.208 75.5861ZM94.6518 51.7036V57.4694C94.6518 59.1031 93.328 60.4269 91.6943 60.4269H56.7734L58.7023 75.1059H38.4425L40.3731 60.4269H5.38244C3.78444 60.4269 2.48981 59.1323 2.48981 57.5375V51.7036H94.6502H94.6518ZM111.208 24.7224V27.9655L91.7721 30.6261L71.5805 27.9655V24.7224C71.5805 21.906 73.8631 19.6234 76.6795 19.6234H106.109C108.925 19.6234 111.208 21.906 111.208 24.7224Z" fill="#AE35F0"/>
<path fill-rule="evenodd" clip-rule="evenodd" d="M39.2083 69.2847H57.9382L56.775 60.4267H40.3747L39.2099 69.2847H39.2083ZM65.6313 60.4267H91.6943C93.328 60.4267 94.6518 59.1029 94.6518 57.4692V51.7034H65.6313V60.4267Z" fill="#9111D8"/>
<path fill-rule="evenodd" clip-rule="evenodd" d="M111.208 27.9655V75.586H71.5806V27.9655H111.208V27.9655Z" fill="white"/>
<path fill-rule="evenodd" clip-rule="evenodd" d="M79.3256 34.9527H103.463V50.2643H79.3256V34.9527V34.9527ZM11.8573 11.5066H35.9961V26.8183H11.8573V11.5066V11.5066Z" fill="#FE7449"/>
<path fill-rule="evenodd" clip-rule="evenodd" d="M66.4312 73.4623H60.1414L58.644 62.0654H65.5552C66.462 62.0654 67.197 61.3304 67.197 60.4252C67.197 59.5183 66.462 58.785 65.5552 58.785H5.38249C4.69138 58.785 4.13005 58.2237 4.13005 57.5358V4.85997C4.13005 4.16885 4.69138 3.60752 5.38249 3.60752H91.7608C92.4487 3.60752 93.01 4.16885 93.01 4.85997V13.5071C93.01 14.4123 93.7434 15.1472 94.6502 15.1472C95.5571 15.1472 96.2904 14.4123 96.2904 13.5071V4.85997C96.2904 2.35994 94.2592 0.327148 91.7608 0.327148H5.38249C2.88246 0.327148 0.84967 2.36157 0.84967 4.85997V57.5358C0.84967 60.0326 2.88409 62.0654 5.38249 62.0654H55.3328L56.8302 73.4623H40.2791L41.0367 66.8286C41.1389 65.9282 40.4932 65.1154 39.5928 65.0115C38.6908 64.9093 37.8796 65.555 37.7758 66.4554L36.976 73.4607H30.7121C29.8052 73.4607 29.0719 74.194 29.0719 75.1009C29.0719 76.0061 29.8052 76.7411 30.7121 76.7411H66.4296C67.3349 76.7411 68.0698 76.0061 68.0698 75.1009C68.0698 74.194 67.3349 73.4607 66.4296 73.4607L66.4312 73.4623Z" fill="#434C54"/>
<path fill-rule="evenodd" clip-rule="evenodd" d="M106.11 17.9813H76.6795C72.9643 17.9813 69.9402 21.0037 69.9402 24.7205V79.1777C69.9402 82.8928 72.9627 85.9169 76.6795 85.9169H106.11C109.826 85.9169 112.85 82.8945 112.85 79.1777V24.7205C112.85 21.0054 109.827 17.9813 106.11 17.9813V17.9813ZM109.568 79.1777C109.568 81.0839 108.017 82.6349 106.11 82.6349H76.6795C74.7732 82.6349 73.2222 81.0839 73.2222 79.1777V24.7205C73.2222 22.8143 74.7732 21.2633 76.6795 21.2633H106.11C108.017 21.2633 109.568 22.8143 109.568 24.7205V79.1777Z" fill="#434C54"/>
<path fill-rule="evenodd" clip-rule="evenodd" d="M61.8968 33.144H11.6545C10.7493 33.144 10.0143 33.8773 10.0143 34.7859C10.0143 35.6911 10.7493 36.426 11.6545 36.426H61.8968C62.8021 36.426 63.537 35.6911 63.537 34.7859C63.537 33.879 62.8021 33.144 61.8968 33.144ZM103.463 65.8488H80.08C79.1748 65.8488 78.4399 66.5838 78.4399 67.489C78.4399 68.3959 79.1748 69.1292 80.08 69.1292H103.463C104.37 69.1292 105.103 68.3959 105.103 67.489C105.103 66.5838 104.37 65.8488 103.463 65.8488ZM103.463 57.2358H80.08C79.1748 57.2358 78.4399 57.9707 78.4399 58.876C78.4399 59.7829 79.1748 60.5178 80.08 60.5178H103.463C104.37 60.5178 105.103 59.7845 105.103 58.876C105.103 57.9707 104.37 57.2358 103.463 57.2358ZM61.8968 41.7554H11.6545C10.7493 41.7554 10.0143 42.4904 10.0143 43.3956C10.0143 44.3025 10.7493 45.0358 11.6545 45.0358H61.8968C62.8021 45.0358 63.537 44.3025 63.537 43.3956C63.537 42.4904 62.8021 41.7554 61.8968 41.7554Z" fill="#E81797"/>
</svg>
