<svg width="1549" height="1221" viewBox="0 0 1549 1221" fill="none" xmlns="http://www.w3.org/2000/svg">
	<g clip-path="url(#clip0)">
		<path
			fill-rule="evenodd"
			clip-rule="evenodd"
			d="M149 -8.99999C156.056 -37.461 380.533 -54.108 579.711 -63.294C778.97 -72.032 975.78 -76.485 975.088 -76.542C1198.88 -61.169 1428.52 -39.865 1656.01 -21.198C1655.99 -20.074 1655.23 28.338 1652.67 110.645C1650.11 192.456 1645.75 308.161 1638.6 432.434C1631.45 556.625 1621.51 689.391 1607.72 803.348C1593.91 917.63 1586.79 1053.87 1564 1111C1493.42 1017.47 1298.47 862.402 1037 859C855.856 856.077 444.534 827.878 462 608C477.573 408.107 630 346 630 346C630 346 707.235 138.075 659 133C416.768 110.556 167.595 167.177 148 41L149 -8.99999Z"
			fill="#F0C8F4"/>
		<path
			fill-rule="evenodd"
			clip-rule="evenodd"
			d="M170 -26C160.591 52.543 130.379 126.334 401 138C530.94 143.601 666.215 208.718 528 424C409.91 607.935 490.409 728.055 697 742C808.143 749.502 928.525 740.871 1088 740C1246.8 739.133 1550.14 894.65 1548 997C1638.52 759.268 1656 -55.999 1656 -55.999L975 -110C975 -110 178.676 -98.427 170 -26Z"
			fill="#F2E3FF"/>
		<path
			d="M170 -26C160.591 52.543 130.379 126.334 401 138C530.94 143.601 666.215 208.718 528 424C409.91 607.935 490.409 728.055 697 742C808.143 749.502 928.525 740.871 1088 740C1246.8 739.133 1550.14 894.65 1548 997C1638.52 759.268 1656 -55.999 1656 -55.999L975 -110C975 -110 178.676 -98.427 170 -26Z"
			fill="url(#paint0_linear)"/>
		<path
			fill-rule="evenodd"
			clip-rule="evenodd"
			d="M496.5 484C761.993 373.489 848.343 617.001 1281 485C1457.19 431.246 1609 504 1609 504L1572 -2L225.5 -23.5V65.5L412 87L547.5 174C547.5 174 632 267.5 577 344.5C522 421.5 496.5 484 496.5 484Z"
			fill="#9111D8"/>
		<path d="M494.5 486.5C759.993 375.989 848.343 617.001 1281 485C1457.19 431.246 1609 504 1609 504L1572 -2L312 15L247 86H362L656 189L553 375L523 430.5L508 458L500 473.5L494.5 486.5Z" fill="url(#paint1_linear)"/>
		<path
			d="M533.001 412.001C662.573 240.225 869.314 346.536 1131.82 444.69C1315.71 513.446 1295.8 163.511 1648.82 229.689C1771.22 252.633 1616.82 -39.3099 1616.82 -39.3099C1616.82 -39.3099 365.5 -73.9999 326 -74C286.5 -74.0001 200 -51.5 192 -47.5C184 -43.5001 175.501 -36.9985 171.5 -30.4992C167.5 -24 162.821 19.19 164.321 43.69C167.321 74.69 170.321 105.69 275.821 126.69C381.321 147.69 512.142 132.879 563.821 207.19C615.501 281.501 564.501 349.501 533.001 412.001Z"
			fill="url(#paint2_linear)"/>
	</g>
	<defs>
		<linearGradient id="paint0_linear" x1="164.067" y1="556.215" x2="1083.68" y2="-377.732" gradientUnits="userSpaceOnUse">
			<stop offset="0.02" stop-color="#661DC9"/>
			<stop offset="1" stop-color="#FF23E3"/>
		</linearGradient>
		<linearGradient id="paint1_linear" x1="110" y1="-50.9999" x2="1609" y2="-50.9999" gradientUnits="userSpaceOnUse">
			<stop stop-color="#6F06AC"/>
			<stop offset="1" stop-color="#B307BE"/>
		</linearGradient>
		<linearGradient id="paint2_linear" x1="202.821" y1="-51.3106" x2="1696.01" y2="-51.3106" gradientUnits="userSpaceOnUse">
			<stop stop-color="#4D0480"/>
			<stop offset="1" stop-color="#89018B"/>
		</linearGradient>
		<clipPath id="clip0">
			<rect width="1549" height="1221" fill="white"/>
		</clipPath>
	</defs>
</svg>
