<svg width="349" height="1473" viewBox="0 0 349 1473" fill="none" xmlns="http://www.w3.org/2000/svg">
<path fill-rule="evenodd" clip-rule="evenodd" d="M129.046 344.031C247.271 553.431 424.946 550.457 312.877 865.697C262.125 1008.45 158.664 1093.33 140.946 1402.73C123.228 1712.13 34.0626 887.248 34.0626 887.248C34.0626 887.248 10.8206 134.631 129.046 344.031Z" fill="#F0C8F4"/>
<path fill-rule="evenodd" clip-rule="evenodd" d="M263.299 831.388C188.404 957.719 99.8367 1038.52 28.9867 1341.61C-41.8633 1644.7 39.4547 821.318 39.4547 821.318C39.4547 821.318 100.295 172.727 144.015 0C177.015 534.5 442.546 529.041 263.299 831.388Z" fill="#891EC8"/>
<path d="M247.015 423L156.015 461V683C190.015 611.4 263.181 548.667 294.015 526L247.015 423Z" fill="#810EB5"/>
<path d="M156.015 544.5C207.615 504.5 257.681 487.833 275.015 484.5C213.015 352 171.015 190.5 155.515 116C155.348 236.667 156.015 500.9 156.015 544.5Z" fill="#5C0586"/>
</svg>
